<svg width="128" height="32" viewBox="0 0 128 32" fill="none" xmlns="http://www.w3.org/2000/svg">
    <path d="M36.1785 18.2937C36.1766 18.4042 36.1311 18.5095 36.0519 18.5865C35.9726 18.6636 35.8661 18.7061 35.7555 18.7049H27.966C28.1657 20.6317 29.6108 22.3941 31.6551 22.3941C33.0533 22.3941 34.0872 21.8654 34.8626 20.7492C34.8987 20.6906 34.9487 20.6417 35.0081 20.6069C35.0675 20.572 35.1345 20.5523 35.2033 20.5495C35.2546 20.548 35.3057 20.5571 35.3534 20.576C35.4011 20.595 35.4444 20.6235 35.4807 20.6598C35.517 20.6961 35.5455 20.7394 35.5645 20.7871C35.5835 20.8348 35.5925 20.8859 35.591 20.9372C35.5913 21.0081 35.5709 21.0775 35.5323 21.1369C34.7451 22.4998 33.1825 23.1695 31.6551 23.1695C29.0351 23.1695 27.1553 20.8197 27.1553 18.3172C27.1553 15.8146 29.0234 13.4648 31.6551 13.4648C34.2869 13.4648 36.1667 15.7911 36.1785 18.2937ZM35.3443 17.9295C35.1798 16.0026 33.6995 14.2403 31.6551 14.2403C29.6108 14.2403 28.1657 16.0026 27.966 17.9295H35.3443Z"
          fill="white"/>
    <path d="M45.6485 13.6527C45.7504 13.6557 45.8473 13.6975 45.9193 13.7696C45.9914 13.8417 46.0332 13.9386 46.0362 14.0405C46.0376 14.0918 46.0286 14.1428 46.0096 14.1905C45.9907 14.2382 45.9622 14.2816 45.9259 14.3179C45.8896 14.3542 45.8462 14.3827 45.7985 14.4016C45.7508 14.4206 45.6998 14.4296 45.6485 14.4282H43.5571V22.6407C43.5562 22.7433 43.5151 22.8413 43.4426 22.9138C43.3701 22.9864 43.272 23.0275 43.1694 23.0284C43.0675 23.0255 42.9706 22.9837 42.8985 22.9116C42.8265 22.8395 42.7847 22.7426 42.7817 22.6407V14.4282H40.7726C40.7213 14.4296 40.6703 14.4206 40.6226 14.4016C40.5749 14.3827 40.5315 14.3542 40.4952 14.3179C40.4589 14.2816 40.4304 14.2382 40.4115 14.1905C40.3925 14.1428 40.3835 14.0918 40.3849 14.0405C40.3858 13.9379 40.427 13.8398 40.4995 13.7673C40.572 13.6948 40.6701 13.6537 40.7726 13.6527H42.7817V10.6567C42.7819 10.5575 42.8175 10.4615 42.8821 10.3861C42.9467 10.3108 43.0361 10.2609 43.1342 10.2455C43.189 10.2383 43.2448 10.2429 43.2976 10.2591C43.3505 10.2754 43.3992 10.3028 43.4405 10.3397C43.4818 10.3765 43.5146 10.4218 43.5368 10.4724C43.5589 10.5231 43.5699 10.578 43.5689 10.6332V13.6527H45.6485Z"
          fill="white"/>
    <path d="M58.3967 17.623V22.5928C58.3937 22.6947 58.3519 22.7916 58.2799 22.8637C58.2078 22.9358 58.1109 22.9776 58.009 22.9805C57.9577 22.982 57.9066 22.973 57.8589 22.954C57.8112 22.935 57.7679 22.9065 57.7316 22.8702C57.6953 22.8339 57.6668 22.7906 57.6478 22.7429C57.6288 22.6952 57.6198 22.6441 57.6213 22.5928V17.623C57.6213 15.9429 56.6696 14.2745 54.8015 14.2745C52.4047 14.2745 51.3708 16.3659 51.5118 18.5159C51.5118 18.5747 51.5353 18.8214 51.5353 18.8567V22.5811C51.5351 22.6804 51.4995 22.7763 51.4349 22.8517C51.3703 22.9271 51.2809 22.9769 51.1828 22.9923C51.128 22.9996 51.0722 22.9949 51.0194 22.9787C50.9665 22.9624 50.9178 22.935 50.8765 22.8982C50.8352 22.8614 50.8024 22.8161 50.7802 22.7654C50.7581 22.7147 50.7471 22.6599 50.7481 22.6046V6.26174C50.749 6.1592 50.7902 6.06111 50.8627 5.9886C50.9352 5.91609 51.0333 5.87494 51.1358 5.87402C51.2377 5.87698 51.3346 5.91878 51.4067 5.99086C51.4788 6.06294 51.5206 6.15985 51.5235 6.26174V15.4964C52.1932 14.298 53.3916 13.4874 54.7898 13.4874C57.0926 13.4874 58.3967 15.4964 58.3967 17.623Z"
          fill="white"/>
    <path d="M72.3894 18.2937C72.3876 18.4042 72.342 18.5095 72.2628 18.5865C72.1835 18.6636 72.077 18.7061 71.9665 18.7049H64.1769C64.3766 20.6317 65.8218 22.3941 67.8661 22.3941C69.2642 22.3941 70.2981 21.8654 71.0735 20.7492C71.1097 20.6906 71.1596 20.6417 71.219 20.6069C71.2784 20.572 71.3455 20.5523 71.4143 20.5495C71.4656 20.548 71.5166 20.5571 71.5643 20.576C71.612 20.595 71.6554 20.6235 71.6917 20.6598C71.728 20.6961 71.7565 20.7394 71.7754 20.7871C71.7944 20.8348 71.8034 20.8859 71.802 20.9372C71.8023 21.0081 71.7818 21.0775 71.7432 21.1369C70.9561 22.4998 69.3934 23.1695 67.8661 23.1695C65.2461 23.1695 63.3662 20.8197 63.3662 18.3172C63.3662 15.8146 65.2343 13.4648 67.8661 13.4648C70.4744 13.4648 72.3777 15.7911 72.3894 18.2937ZM71.5435 17.9295C71.379 16.0026 69.8986 14.2403 67.8543 14.2403C65.81 14.2403 64.3649 16.0026 64.1651 17.9295H71.5435Z"
          fill="white"/>
    <path d="M81.9657 14.0166C81.9731 14.1209 81.939 14.2239 81.8708 14.3031C81.8025 14.3824 81.7057 14.4314 81.6015 14.4395C79.3104 14.7802 78.2765 16.6483 78.2765 18.8219V22.5463C78.2763 22.6456 78.2407 22.7415 78.1761 22.8169C78.1115 22.8923 78.0221 22.9422 77.924 22.9575C77.8692 22.9648 77.8135 22.9602 77.7606 22.9439C77.7077 22.9277 77.659 22.9002 77.6177 22.8634C77.5765 22.8266 77.5436 22.7813 77.5215 22.7306C77.4993 22.68 77.4883 22.6251 77.4893 22.5698V14.0753C77.4895 13.976 77.5251 13.8801 77.5897 13.8047C77.6543 13.7293 77.7437 13.6795 77.8418 13.6641C77.8966 13.6568 77.9524 13.6615 78.0052 13.6777C78.0581 13.6939 78.1068 13.7214 78.1481 13.7582C78.1894 13.795 78.2222 13.8403 78.2444 13.891C78.2665 13.9417 78.2775 13.9965 78.2765 14.0518V15.7789C78.9227 14.6863 80.2033 13.6523 81.5427 13.6523C81.7425 13.6523 81.9657 13.7933 81.9657 14.0166Z"
          fill="white"/>
    <path d="M94.7713 18.2937C94.7694 18.4042 94.7239 18.5095 94.6446 18.5865C94.5654 18.6636 94.4588 18.7061 94.3483 18.7049H86.5587C86.7585 20.6317 88.2036 22.3941 90.2479 22.3941C91.646 22.3941 92.68 21.8654 93.4554 20.7492C93.4915 20.6906 93.5414 20.6417 93.6008 20.6069C93.6602 20.572 93.7273 20.5523 93.7961 20.5495C93.8474 20.548 93.8985 20.5571 93.9462 20.576C93.9939 20.595 94.0372 20.6235 94.0735 20.6598C94.1098 20.6961 94.1383 20.7394 94.1573 20.7871C94.1763 20.8348 94.1853 20.8859 94.1838 20.9372C94.1841 21.0081 94.1637 21.0775 94.1251 21.1369C93.3379 22.4998 91.7753 23.1695 90.2479 23.1695C87.6279 23.1695 85.748 20.8197 85.748 18.3172C85.748 15.8146 87.6161 13.4648 90.2479 13.4648C92.8797 13.4648 94.7595 15.7911 94.7713 18.2937ZM93.9371 17.9295C93.7726 16.0026 92.2922 14.2403 90.2479 14.2403C88.2036 14.2403 86.7585 16.0026 86.5587 17.9295H93.9371Z"
          fill="white"/>
    <path d="M107.367 14.1109V22.6406C107.364 22.7425 107.322 22.8394 107.25 22.9115C107.178 22.9836 107.081 23.0254 106.98 23.0283C106.928 23.0298 106.877 23.0208 106.829 23.0018C106.782 22.9828 106.738 22.9543 106.702 22.918C106.666 22.8817 106.637 22.8384 106.618 22.7907C106.599 22.743 106.59 22.6919 106.592 22.6406V21.0193C105.946 22.2999 104.806 23.2281 103.349 23.2281C101.035 23.2281 99.7539 21.219 99.7539 19.0924V14.0991C99.7548 13.9966 99.796 13.8985 99.8685 13.826C99.941 13.7535 100.039 13.7123 100.142 13.7114C100.244 13.7144 100.34 13.7562 100.413 13.8282C100.485 13.9003 100.526 13.9972 100.529 14.0991V19.0924C100.529 20.7725 101.481 22.4409 103.349 22.4409C105.969 22.4409 106.592 19.9854 106.592 17.2713V14.0874C106.593 14.0245 106.609 13.9628 106.638 13.9073C106.668 13.8519 106.71 13.8043 106.762 13.7687C106.814 13.733 106.873 13.7103 106.936 13.7024C106.998 13.6944 107.061 13.7016 107.121 13.7232C107.194 13.7575 107.257 13.8122 107.301 13.8809C107.344 13.9496 107.367 14.0294 107.367 14.1109Z"
          fill="white"/>
    <path d="M127.094 17.5877V22.581C127.091 22.6829 127.049 22.7798 126.977 22.8519C126.905 22.924 126.808 22.9658 126.706 22.9687C126.655 22.9702 126.604 22.9612 126.556 22.9422C126.508 22.9232 126.465 22.8947 126.429 22.8584C126.393 22.8221 126.364 22.7788 126.345 22.7311C126.326 22.6834 126.317 22.6323 126.319 22.581V17.5877C126.319 15.9076 125.367 14.2627 123.499 14.2627C121.149 14.2627 120.256 16.777 120.256 18.7274V22.581C120.253 22.6829 120.211 22.7798 120.139 22.8519C120.067 22.924 119.97 22.9658 119.868 22.9687C119.817 22.9702 119.766 22.9612 119.718 22.9422C119.671 22.9232 119.627 22.8947 119.591 22.8584C119.555 22.8221 119.526 22.7788 119.507 22.7311C119.488 22.6834 119.479 22.6323 119.481 22.581V17.5877C119.481 15.9076 118.529 14.2627 116.661 14.2627C114.288 14.2627 113.312 16.1308 113.395 18.6216C113.395 18.6804 113.418 18.7861 113.395 18.8213V22.5693C113.394 22.6685 113.359 22.7645 113.294 22.8399C113.23 22.9152 113.14 22.9651 113.042 22.9805C112.987 22.9878 112.932 22.9831 112.879 22.9669C112.826 22.9506 112.777 22.9232 112.736 22.8864C112.695 22.8495 112.662 22.8043 112.64 22.7536C112.617 22.7029 112.606 22.6481 112.607 22.5928V14.0748C112.608 13.9755 112.643 13.8795 112.708 13.8042C112.772 13.7288 112.862 13.6789 112.96 13.6635C113.015 13.6563 113.071 13.6609 113.123 13.6771C113.176 13.6934 113.225 13.7209 113.266 13.7577C113.308 13.7945 113.34 13.8398 113.363 13.8904C113.385 13.9411 113.396 13.996 113.395 14.0513V15.4729C114.064 14.2745 115.263 13.4873 116.661 13.4873C118.247 13.4873 119.481 14.4977 119.986 15.9663C120.632 14.5095 121.889 13.4873 123.499 13.4873C125.79 13.4873 127.094 15.4729 127.094 17.5877Z"
          fill="white"/>
    <path opacity="0.6" d="M9.95576 11.7607L0.204102 16.1901L9.95576 21.9589L19.7192 16.1901L9.95576 11.7607Z"
          fill="white"/>
    <path opacity="0.45" d="M0.204102 16.1901L9.95576 21.9589V0L0.204102 16.1901Z" fill="white"/>
    <path opacity="0.8" d="M9.95605 0V21.9589L19.7195 16.1901L9.95605 0Z" fill="white"/>
    <path opacity="0.45" d="M0.204102 18.0469L9.95576 31.7932V23.8039L0.204102 18.0469Z" fill="white"/>
    <path opacity="0.8" d="M9.95605 23.8039V31.7932L19.7195 18.0469L9.95605 23.8039Z" fill="white"/>
</svg>
