<svg width="109" height="134" viewBox="0 0 109 134" fill="none" xmlns="http://www.w3.org/2000/svg">
    <g clip-path="url(#clip0_6360_13712)">
        <path d="M40.4634 84.0022C40.4634 81.5549 38.4729 79.5645 36.0256 79.5645C33.5783 79.5645 31.5879 81.5549 31.5879 84.0022C31.5879 86.4495 33.5783 88.4399 36.0256 88.4399C38.4729 88.4399 40.4634 86.4495 40.4634 84.0022Z"
              fill="url(#paint0_linear_6360_13712)"/>
        <path d="M36.0256 102.094C33.5783 102.094 31.5879 104.084 31.5879 106.531C31.5879 108.979 33.5783 110.969 36.0256 110.969C38.4729 110.969 40.4634 108.979 40.4634 106.531C40.4634 104.084 38.4729 102.094 36.0256 102.094Z"
              fill="url(#paint1_linear_6360_13712)"/>
        <path d="M41.6565 90.8291C39.2092 90.8291 37.2188 92.8196 37.2188 95.2668C37.2188 97.7141 39.2092 99.7046 41.6565 99.7046C44.1038 99.7046 46.0942 97.7141 46.0942 95.2668C46.0942 92.8196 44.1038 90.8291 41.6565 90.8291Z"
              fill="url(#paint2_linear_6360_13712)"/>
        <path d="M34.8286 95.2668C34.8286 92.8196 32.8381 90.8291 30.3909 90.8291C27.9436 90.8291 25.9531 92.8196 25.9531 95.2668C25.9531 97.7141 27.9436 99.7046 30.3909 99.7046C32.8381 99.7046 34.8286 97.7141 34.8286 95.2668Z"
              fill="url(#paint3_linear_6360_13712)"/>
        <path d="M30.3909 113.359C27.9436 113.359 25.9531 115.35 25.9531 117.797C25.9531 120.244 27.9436 122.235 30.3909 122.235C32.8381 122.235 34.8286 120.244 34.8286 117.797C34.8286 115.35 32.8381 113.359 30.3909 113.359Z"
              fill="url(#paint4_linear_6360_13712)"/>
        <path d="M20.9756 84.0035C20.9756 86.0886 22.6724 87.7854 24.7574 87.7854C26.8425 87.7854 28.5393 86.0886 28.5393 84.0035C28.5393 81.9185 26.8425 80.2217 24.7574 80.2217C22.6724 80.2217 20.9756 81.9185 20.9756 84.0035Z"
              fill="url(#paint5_linear_6360_13712)"/>
        <path d="M24.761 110.969C27.2082 110.969 29.1987 108.979 29.1987 106.531C29.1987 104.084 27.2082 102.094 24.761 102.094C22.3137 102.094 20.3232 104.084 20.3232 106.531C20.3232 108.979 22.3137 110.969 24.761 110.969Z"
              fill="url(#paint6_linear_6360_13712)"/>
        <path d="M19.1276 99.05C21.2126 99.05 22.9094 97.3533 22.9094 95.2682C22.9094 93.1831 21.2126 91.4863 19.1276 91.4863C17.0425 91.4863 15.3457 93.1831 15.3457 95.2682C15.3457 97.3533 17.0425 99.05 19.1276 99.05Z"
              fill="url(#paint7_linear_6360_13712)"/>
        <path d="M22.9094 117.797C22.9094 115.712 21.2126 114.016 19.1276 114.016C17.0425 114.016 15.3457 115.712 15.3457 117.797C15.3457 119.883 17.0425 121.579 19.1276 121.579C21.2126 121.579 22.9094 119.883 22.9094 117.797Z"
              fill="url(#paint8_linear_6360_13712)"/>
        <path d="M7.86447 115.541C6.61799 115.541 5.60645 116.553 5.60645 117.799C5.60645 119.046 6.61799 120.057 7.86447 120.057C9.11095 120.057 10.1225 119.046 10.1225 117.799C10.1225 116.553 9.11095 115.541 7.86447 115.541Z"
              fill="url(#paint9_linear_6360_13712)"/>
        <path d="M47.9436 79.5645C45.4963 79.5645 43.5059 81.5549 43.5059 84.0022C43.5059 86.4495 45.4963 88.4399 47.9436 88.4399C50.3909 88.4399 52.3813 86.4495 52.3813 84.0022C52.3813 81.5549 50.3909 79.5645 47.9436 79.5645Z"
              fill="url(#paint10_linear_6360_13712)"/>
        <path d="M13.4946 109.444C15.1 109.444 16.4052 108.139 16.4052 106.534C16.4052 104.928 15.1 103.623 13.4946 103.623C11.8892 103.623 10.584 104.928 10.584 106.534C10.584 108.139 11.8892 109.444 13.4946 109.444Z"
              fill="url(#paint11_linear_6360_13712)"/>
        <path d="M24.761 124.417C22.3137 124.417 20.3232 126.407 20.3232 128.855C20.3232 131.302 22.3137 133.292 24.761 133.292C27.2082 133.292 29.1987 131.302 29.1987 128.855C29.1987 126.407 27.2082 124.417 24.761 124.417Z"
              fill="url(#paint12_linear_6360_13712)"/>
        <path d="M13.4946 125.942C11.8892 125.942 10.584 127.248 10.584 128.853C10.584 130.458 11.8892 131.764 13.4946 131.764C15.1 131.764 16.4052 130.458 16.4052 128.853C16.4052 127.248 15.1 125.942 13.4946 125.942Z"
              fill="url(#paint13_linear_6360_13712)"/>
        <path d="M2.3198 127.033C1.31478 127.033 0.499023 127.849 0.499023 128.854C0.499023 129.859 1.31478 130.675 2.3198 130.675C3.32481 130.675 4.14057 129.859 4.14057 128.854C4.14057 127.849 3.32481 127.033 2.3198 127.033Z"
              fill="url(#paint14_linear_6360_13712)"/>
        <path d="M104.062 34.5088C101.614 34.5088 99.624 36.4992 99.624 38.9465C99.624 41.3938 101.614 43.3843 104.062 43.3843C106.509 43.3843 108.499 41.3938 108.499 38.9465C108.499 36.4992 106.509 34.5088 104.062 34.5088Z"
              fill="url(#paint15_linear_6360_13712)"/>
        <path d="M102.865 27.6731C102.865 25.2258 100.874 23.2354 98.427 23.2354C95.9797 23.2354 93.9893 25.2258 93.9893 27.6731C93.9893 30.1204 95.9797 32.1108 98.427 32.1108C100.874 32.1108 102.865 30.1204 102.865 27.6731Z"
              fill="url(#paint16_linear_6360_13712)"/>
        <path d="M98.4309 45.7695C95.9836 45.7695 93.9932 47.76 93.9932 50.2073C93.9932 52.6545 95.9836 54.645 98.4309 54.645C100.878 54.645 102.869 52.6545 102.869 50.2073C102.869 47.76 100.878 45.7695 98.4309 45.7695Z"
              fill="url(#paint17_linear_6360_13712)"/>
        <path d="M85.9692 16.4133C85.9692 13.966 83.9788 11.9756 81.5315 11.9756C79.0842 11.9756 77.0938 13.966 77.0938 16.4133C77.0938 18.8606 79.0842 20.851 81.5315 20.851C83.9788 20.851 85.9692 18.8606 85.9692 16.4133Z"
              fill="url(#paint18_linear_6360_13712)"/>
        <path d="M87.1623 9.58542C89.6132 9.58542 91.6001 7.59858 91.6001 5.14769C91.6001 2.6968 89.6132 0.709961 87.1623 0.709961C84.7114 0.709961 82.7246 2.6968 82.7246 5.14769C82.7246 7.59858 84.7114 9.58542 87.1623 9.58542Z"
              fill="url(#paint19_linear_6360_13712)"/>
        <path d="M75.8967 9.58151C78.344 9.58151 80.3344 7.59106 80.3344 5.14378C80.3344 2.69651 78.344 0.706055 75.8967 0.706055C73.4494 0.706055 71.459 2.69651 71.459 5.14378C71.459 7.59106 73.4494 9.58151 75.8967 9.58151Z"
              fill="url(#paint20_linear_6360_13712)"/>
        <path d="M97.23 38.9465C97.23 36.4992 95.2395 34.5088 92.7922 34.5088C90.3449 34.5088 88.3545 36.4992 88.3545 38.9465C88.3545 41.3938 90.3449 43.3843 92.7922 43.3843C95.2395 43.3843 97.23 41.3938 97.23 38.9465Z"
              fill="url(#paint21_linear_6360_13712)"/>
        <path d="M85.9692 38.9465C85.9692 36.4992 83.9788 34.5088 81.5315 34.5088C79.0842 34.5088 77.0938 36.4992 77.0938 38.9465C77.0938 41.3938 79.0842 43.3843 81.5315 43.3843C83.9788 43.3843 85.9692 41.3938 85.9692 38.9465Z"
              fill="url(#paint22_linear_6360_13712)"/>
        <path d="M87.1623 32.1108C89.6096 32.1108 91.6001 30.1204 91.6001 27.6731C91.6001 25.2258 89.6096 23.2354 87.1623 23.2354C84.7151 23.2354 82.7246 25.2258 82.7246 27.6731C82.7246 30.1204 84.7151 32.1108 87.1623 32.1108Z"
              fill="url(#paint23_linear_6360_13712)"/>
        <path d="M71.459 27.6731C71.459 30.1204 73.4494 32.1108 75.8967 32.1108C78.344 32.1108 80.3344 30.1204 80.3344 27.6731C80.3344 25.2258 78.344 23.2354 75.8967 23.2354C73.4494 23.2354 71.459 25.2258 71.459 27.6731Z"
              fill="url(#paint24_linear_6360_13712)"/>
        <path d="M92.7961 57.0381C90.3488 57.0381 88.3584 59.0285 88.3584 61.4758C88.3584 63.9231 90.3488 65.9136 92.7961 65.9136C95.2434 65.9136 97.2339 63.9231 97.2339 61.4758C97.2339 59.0285 95.2434 57.0381 92.7961 57.0381Z"
              fill="url(#paint25_linear_6360_13712)"/>
        <path d="M85.9692 61.4719C85.9692 59.0246 83.9788 57.0342 81.5315 57.0342C79.0842 57.0342 77.0938 59.0246 77.0938 61.4719C77.0938 63.9192 79.0842 65.9096 81.5315 65.9096C83.9788 65.9096 85.9692 63.9192 85.9692 61.4719Z"
              fill="url(#paint26_linear_6360_13712)"/>
        <path d="M87.1623 54.645C89.6096 54.645 91.6001 52.6545 91.6001 50.2073C91.6001 47.76 89.6096 45.7695 87.1623 45.7695C84.7151 45.7695 82.7246 47.76 82.7246 50.2073C82.7246 52.6545 84.7151 54.645 87.1623 54.645Z"
              fill="url(#paint27_linear_6360_13712)"/>
        <path d="M75.8967 54.645C78.344 54.645 80.3344 52.6545 80.3344 50.2073C80.3344 47.76 78.344 45.7695 75.8967 45.7695C73.4494 45.7695 71.459 47.76 71.459 50.2073C71.459 52.6545 73.4494 54.645 75.8967 54.645Z"
              fill="url(#paint28_linear_6360_13712)"/>
        <path d="M87.1623 68.3027C84.7151 68.3027 82.7246 70.2932 82.7246 72.7405C82.7246 75.1877 84.7151 77.1782 87.1623 77.1782C89.6096 77.1782 91.6001 75.1877 91.6001 72.7405C91.6001 70.2932 89.6096 68.3027 87.1623 68.3027Z"
              fill="url(#paint29_linear_6360_13712)"/>
        <path d="M75.8967 68.3027C73.4494 68.3027 71.459 70.2932 71.459 72.7405C71.459 75.1877 73.4494 77.1782 75.8967 77.1782C78.344 77.1782 80.3344 75.1877 80.3344 72.7405C80.3344 70.2932 78.344 68.3027 75.8967 68.3027Z"
              fill="url(#paint30_linear_6360_13712)"/>
        <path d="M70.2668 20.851C72.7141 20.851 74.7046 18.8606 74.7046 16.4133C74.7046 13.966 72.7141 11.9756 70.2668 11.9756C67.8196 11.9756 65.8291 13.966 65.8291 16.4133C65.8291 18.8606 67.8196 20.851 70.2668 20.851Z"
              fill="url(#paint31_linear_6360_13712)"/>
        <path d="M59.0022 20.851C61.4495 20.851 63.4399 18.8606 63.4399 16.4133C63.4399 13.966 61.4495 11.9756 59.0022 11.9756C56.5549 11.9756 54.5645 13.966 54.5645 16.4133C54.5645 18.8606 56.5549 20.851 59.0022 20.851Z"
              fill="url(#paint32_linear_6360_13712)"/>
        <path d="M69.0698 5.14769C69.0698 2.70041 67.0793 0.709961 64.6321 0.709961C62.1848 0.709961 60.1943 2.70041 60.1943 5.14769C60.1943 7.59497 62.1848 9.58542 64.6321 9.58542C67.0793 9.58542 69.0698 7.59497 69.0698 5.14769Z"
              fill="url(#paint33_linear_6360_13712)"/>
        <path d="M57.8051 5.14769C57.8051 2.70041 55.8147 0.709961 53.3674 0.709961C50.9201 0.709961 48.9297 2.70041 48.9297 5.14769C48.9297 7.59497 50.9201 9.58542 53.3674 9.58542C55.8147 9.58542 57.8051 7.59497 57.8051 5.14769Z"
              fill="url(#paint34_linear_6360_13712)"/>
        <path d="M74.7046 61.4719C74.7046 59.0246 72.7141 57.0342 70.2668 57.0342C67.8196 57.0342 65.8291 59.0246 65.8291 61.4719C65.8291 63.9192 67.8196 65.9096 70.2668 65.9096C72.7141 65.9096 74.7046 63.9192 74.7046 61.4719Z"
              fill="url(#paint35_linear_6360_13712)"/>
        <path d="M63.435 61.4719C63.435 59.0246 61.4446 57.0342 58.9973 57.0342C56.55 57.0342 54.5596 59.0246 54.5596 61.4719C54.5596 63.9192 56.55 65.9096 58.9973 65.9096C61.4446 65.9096 63.435 63.9192 63.435 61.4719Z"
              fill="url(#paint36_linear_6360_13712)"/>
        <path d="M64.6321 68.3027C62.1848 68.3027 60.1943 70.2932 60.1943 72.7405C60.1943 75.1877 62.1848 77.1782 64.6321 77.1782C67.0793 77.1782 69.0698 75.1877 69.0698 72.7405C69.0698 70.2932 67.0793 68.3027 64.6321 68.3027Z"
              fill="url(#paint37_linear_6360_13712)"/>
        <path d="M53.3713 68.3027C50.924 68.3027 48.9336 70.2932 48.9336 72.7405C48.9336 75.1877 50.924 77.1782 53.3713 77.1782C55.8186 77.1782 57.8091 75.1877 57.8091 72.7405C57.8091 70.2932 55.8186 68.3027 53.3713 68.3027Z"
              fill="url(#paint38_linear_6360_13712)"/>
        <path d="M47.7326 11.9756C45.2854 11.9756 43.2949 13.966 43.2949 16.4133C43.2949 18.8606 45.2854 20.851 47.7326 20.851C50.1799 20.851 52.1704 18.8606 52.1704 16.4133C52.1704 13.966 50.1799 11.9756 47.7326 11.9756Z"
              fill="url(#paint39_linear_6360_13712)"/>
        <path d="M36.4694 12.6318C34.3843 12.6318 32.6875 14.3286 32.6875 16.4137C32.6875 18.4988 34.3843 20.1956 36.4694 20.1956C38.5544 20.1956 40.2512 18.4988 40.2512 16.4137C40.2512 14.3286 38.5544 12.6318 36.4694 12.6318Z"
              fill="url(#paint40_linear_6360_13712)"/>
        <path d="M42.1028 9.58542C44.5537 9.58542 46.5405 7.59858 46.5405 5.14769C46.5405 2.6968 44.5537 0.709961 42.1028 0.709961C39.6519 0.709961 37.665 2.6968 37.665 5.14769C37.665 7.59858 39.6519 9.58542 42.1028 9.58542Z"
              fill="url(#paint41_linear_6360_13712)"/>
        <path d="M30.8385 8.93091C32.9236 8.93091 34.6204 7.23413 34.6204 5.14905C34.6204 3.06397 32.9236 1.36719 30.8385 1.36719C28.7534 1.36719 27.0566 3.06397 27.0566 5.14905C27.0566 7.23413 28.7534 8.93091 30.8385 8.93091Z"
              fill="url(#paint42_linear_6360_13712)"/>
        <path d="M52.1704 61.4719C52.1704 59.0246 50.1799 57.0342 47.7326 57.0342C45.2854 57.0342 43.2949 59.0246 43.2949 61.4719C43.2949 63.9192 45.2854 65.9096 47.7326 65.9096C50.1799 65.9096 52.1704 63.9192 52.1704 61.4719Z"
              fill="url(#paint43_linear_6360_13712)"/>
        <path d="M40.2512 61.4694C40.2512 59.3843 38.5544 57.6875 36.4694 57.6875C34.3843 57.6875 32.6875 59.3843 32.6875 61.4694C32.6875 63.5544 34.3843 65.2512 36.4694 65.2512C38.5544 65.2512 40.2512 63.5544 40.2512 61.4694Z"
              fill="url(#paint44_linear_6360_13712)"/>
        <path d="M46.5405 72.7405C46.5405 70.2932 44.55 68.3027 42.1028 68.3027C39.6555 68.3027 37.665 70.2932 37.665 72.7405C37.665 75.1877 39.6555 77.1782 42.1028 77.1782C44.55 77.1782 46.5405 75.1877 46.5405 72.7405Z"
              fill="url(#paint45_linear_6360_13712)"/>
        <path d="M34.6204 72.7379C34.6204 70.6528 32.9236 68.9561 30.8385 68.9561C28.7534 68.9561 27.0566 70.6528 27.0566 72.7379C27.0566 74.823 28.7534 76.5198 30.8385 76.5198C32.9236 76.5198 34.6204 74.823 34.6204 72.7379Z"
              fill="url(#paint46_linear_6360_13712)"/>
        <path d="M13.9406 18.6694C15.1871 18.6694 16.1987 17.6578 16.1987 16.4113C16.1987 15.1649 15.1871 14.1533 13.9406 14.1533C12.6942 14.1533 11.6826 15.1649 11.6826 16.4113C11.6826 17.6578 12.6942 18.6694 13.9406 18.6694Z"
              fill="url(#paint47_linear_6360_13712)"/>
        <path d="M8.30587 2.88867C7.05939 2.88867 6.04785 3.90021 6.04785 5.14669C6.04785 6.39317 7.05939 7.40471 8.30587 7.40471C9.55235 7.40471 10.5639 6.39317 10.5639 5.14669C10.5639 3.90021 9.55235 2.88867 8.30587 2.88867Z"
              fill="url(#paint48_linear_6360_13712)"/>
        <path d="M97.23 16.4133C97.23 13.966 95.2395 11.9756 92.7922 11.9756C90.3449 11.9756 88.3545 13.966 88.3545 16.4133C88.3545 18.8606 90.3449 20.851 92.7922 20.851C95.2395 20.851 97.23 18.8606 97.23 16.4133Z"
              fill="url(#paint49_linear_6360_13712)"/>
        <path d="M25.2046 19.3213C26.81 19.3213 28.1152 18.016 28.1152 16.4106C28.1152 14.8052 26.81 13.5 25.2046 13.5C23.5992 13.5 22.2939 14.8052 22.2939 16.4106C22.2939 18.016 23.5992 19.3213 25.2046 19.3213Z"
              fill="url(#paint50_linear_6360_13712)"/>
        <path d="M19.5747 8.05661C21.1822 8.05661 22.4853 6.75348 22.4853 5.14598C22.4853 3.53848 21.1822 2.23535 19.5747 2.23535C17.9672 2.23535 16.6641 3.53848 16.6641 5.14598C16.6641 6.75348 17.9672 8.05661 19.5747 8.05661Z"
              fill="url(#paint51_linear_6360_13712)"/>
    </g>
    <defs>
        <linearGradient id="paint0_linear_6360_13712" x1="5.87516" y1="83.7216" x2="95.6119" y2="84.5602"
                        gradientUnits="userSpaceOnUse">
            <stop offset="0.18" stop-color="#5B4FEC"/>
            <stop offset="0.53" stop-color="#D99A7F"/>
            <stop offset="1" stop-color="white"/>
        </linearGradient>
        <linearGradient id="paint1_linear_6360_13712" x1="5.66632" y1="106.248" x2="95.4031" y2="107.086"
                        gradientUnits="userSpaceOnUse">
            <stop offset="0.18" stop-color="#5B4FEC"/>
            <stop offset="0.53" stop-color="#D99A7F"/>
            <stop offset="1" stop-color="white"/>
        </linearGradient>
        <linearGradient id="paint2_linear_6360_13712" x1="5.76961" y1="94.9275" x2="95.5064" y2="95.7661"
                        gradientUnits="userSpaceOnUse">
            <stop offset="0.18" stop-color="#5B4FEC"/>
            <stop offset="0.53" stop-color="#D99A7F"/>
            <stop offset="1" stop-color="white"/>
        </linearGradient>
        <linearGradient id="paint3_linear_6360_13712" x1="5.76798" y1="95.0384" x2="95.5047" y2="95.877"
                        gradientUnits="userSpaceOnUse">
            <stop offset="0.18" stop-color="#5B4FEC"/>
            <stop offset="0.53" stop-color="#D99A7F"/>
            <stop offset="1" stop-color="white"/>
        </linearGradient>
        <linearGradient id="paint4_linear_6360_13712" x1="5.55589" y1="117.565" x2="95.2926" y2="118.404"
                        gradientUnits="userSpaceOnUse">
            <stop offset="0.18" stop-color="#5B4FEC"/>
            <stop offset="0.53" stop-color="#D99A7F"/>
            <stop offset="1" stop-color="white"/>
        </linearGradient>
        <linearGradient id="paint5_linear_6360_13712" x1="5.87099" y1="83.8273" x2="95.6078" y2="84.6659"
                        gradientUnits="userSpaceOnUse">
            <stop offset="0.18" stop-color="#5B4FEC"/>
            <stop offset="0.53" stop-color="#D99A7F"/>
            <stop offset="1" stop-color="white"/>
        </linearGradient>
        <linearGradient id="paint6_linear_6360_13712" x1="5.66242" y1="106.355" x2="95.3992" y2="107.194"
                        gradientUnits="userSpaceOnUse">
            <stop offset="0.18" stop-color="#5B4FEC"/>
            <stop offset="0.53" stop-color="#D99A7F"/>
            <stop offset="1" stop-color="white"/>
        </linearGradient>
        <linearGradient id="paint7_linear_6360_13712" x1="5.76543" y1="95.1409" x2="95.5055" y2="95.9795"
                        gradientUnits="userSpaceOnUse">
            <stop offset="0.18" stop-color="#5B4FEC"/>
            <stop offset="0.53" stop-color="#D99A7F"/>
            <stop offset="1" stop-color="white"/>
        </linearGradient>
        <linearGradient id="paint8_linear_6360_13712" x1="5.55659" y1="117.67" x2="95.2934" y2="118.509"
                        gradientUnits="userSpaceOnUse">
            <stop offset="0.18" stop-color="#5B4FEC"/>
            <stop offset="0.53" stop-color="#D99A7F"/>
            <stop offset="1" stop-color="white"/>
        </linearGradient>
        <linearGradient id="paint9_linear_6360_13712" x1="5.5575" y1="117.776" x2="95.2943" y2="118.615"
                        gradientUnits="userSpaceOnUse">
            <stop offset="0.18" stop-color="#5B4FEC"/>
            <stop offset="0.53" stop-color="#D99A7F"/>
            <stop offset="1" stop-color="white"/>
        </linearGradient>
        <linearGradient id="paint10_linear_6360_13712" x1="5.87326" y1="83.6074" x2="95.6133" y2="84.446"
                        gradientUnits="userSpaceOnUse">
            <stop offset="0.18" stop-color="#5B4FEC"/>
            <stop offset="0.53" stop-color="#D99A7F"/>
            <stop offset="1" stop-color="white"/>
        </linearGradient>
        <linearGradient id="paint11_linear_6360_13712" x1="5.66006" y1="106.459" x2="95.3968" y2="107.297"
                        gradientUnits="userSpaceOnUse">
            <stop offset="0.18" stop-color="#5B4FEC"/>
            <stop offset="0.53" stop-color="#D99A7F"/>
            <stop offset="1" stop-color="white"/>
        </linearGradient>
        <linearGradient id="paint12_linear_6360_13712" x1="5.45359" y1="128.675" x2="95.1936" y2="129.514"
                        gradientUnits="userSpaceOnUse">
            <stop offset="0.18" stop-color="#5B4FEC"/>
            <stop offset="0.53" stop-color="#D99A7F"/>
            <stop offset="1" stop-color="white"/>
        </linearGradient>
        <linearGradient id="paint13_linear_6360_13712" x1="5.45123" y1="128.778" x2="95.188" y2="129.617"
                        gradientUnits="userSpaceOnUse">
            <stop offset="0.18" stop-color="#5B4FEC"/>
            <stop offset="0.53" stop-color="#D99A7F"/>
            <stop offset="1" stop-color="white"/>
        </linearGradient>
        <linearGradient id="paint14_linear_6360_13712" x1="5.45231" y1="128.883" x2="95.1891" y2="129.722"
                        gradientUnits="userSpaceOnUse">
            <stop offset="0.18" stop-color="#5B4FEC"/>
            <stop offset="0.53" stop-color="#D99A7F"/>
            <stop offset="1" stop-color="white"/>
        </linearGradient>
        <linearGradient id="paint15_linear_6360_13712" x1="6.30114" y1="38.0329" x2="96.0379" y2="38.8715"
                        gradientUnits="userSpaceOnUse">
            <stop offset="0.18" stop-color="#5B4FEC"/>
            <stop offset="0.53" stop-color="#D99A7F"/>
            <stop offset="1" stop-color="white"/>
        </linearGradient>
        <linearGradient id="paint16_linear_6360_13712" x1="6.40616" y1="26.8149" x2="96.1429" y2="27.6535"
                        gradientUnits="userSpaceOnUse">
            <stop offset="0.18" stop-color="#5B4FEC"/>
            <stop offset="0.53" stop-color="#D99A7F"/>
            <stop offset="1" stop-color="white"/>
        </linearGradient>
        <linearGradient id="paint17_linear_6360_13712" x1="6.19787" y1="49.3458" x2="95.9347" y2="50.1844"
                        gradientUnits="userSpaceOnUse">
            <stop offset="0.18" stop-color="#5B4FEC"/>
            <stop offset="0.53" stop-color="#D99A7F"/>
            <stop offset="1" stop-color="white"/>
        </linearGradient>
        <linearGradient id="paint18_linear_6360_13712" x1="6.51101" y1="15.7118" x2="96.2478" y2="16.5504"
                        gradientUnits="userSpaceOnUse">
            <stop offset="0.18" stop-color="#5B4FEC"/>
            <stop offset="0.53" stop-color="#D99A7F"/>
            <stop offset="1" stop-color="white"/>
        </linearGradient>
        <linearGradient id="paint19_linear_6360_13712" x1="6.61429" y1="4.39393" x2="96.351" y2="5.23253"
                        gradientUnits="userSpaceOnUse">
            <stop offset="0.18" stop-color="#5B4FEC"/>
            <stop offset="0.53" stop-color="#D99A7F"/>
            <stop offset="1" stop-color="white"/>
        </linearGradient>
        <linearGradient id="paint20_linear_6360_13712" x1="6.61267" y1="4.4977" x2="96.3494" y2="5.3363"
                        gradientUnits="userSpaceOnUse">
            <stop offset="0.18" stop-color="#5B4FEC"/>
            <stop offset="0.53" stop-color="#D99A7F"/>
            <stop offset="1" stop-color="white"/>
        </linearGradient>
        <linearGradient id="paint21_linear_6360_13712" x1="6.29888" y1="38.1373" x2="96.0357" y2="38.9759"
                        gradientUnits="userSpaceOnUse">
            <stop offset="0.18" stop-color="#5B4FEC"/>
            <stop offset="0.53" stop-color="#D99A7F"/>
            <stop offset="1" stop-color="white"/>
        </linearGradient>
        <linearGradient id="paint22_linear_6360_13712" x1="6.29892" y1="38.2417" x2="96.0389" y2="39.0803"
                        gradientUnits="userSpaceOnUse">
            <stop offset="0.18" stop-color="#5B4FEC"/>
            <stop offset="0.53" stop-color="#D99A7F"/>
            <stop offset="1" stop-color="white"/>
        </linearGradient>
        <linearGradient id="paint23_linear_6360_13712" x1="6.40546" y1="26.9193" x2="96.1422" y2="27.7579"
                        gradientUnits="userSpaceOnUse">
            <stop offset="0.18" stop-color="#5B4FEC"/>
            <stop offset="0.53" stop-color="#D99A7F"/>
            <stop offset="1" stop-color="white"/>
        </linearGradient>
        <linearGradient id="paint24_linear_6360_13712" x1="6.40057" y1="27.0237" x2="96.1406" y2="27.8623"
                        gradientUnits="userSpaceOnUse">
            <stop offset="0.18" stop-color="#5B4FEC"/>
            <stop offset="0.53" stop-color="#D99A7F"/>
            <stop offset="1" stop-color="white"/>
        </linearGradient>
        <linearGradient id="paint25_linear_6360_13712" x1="6.08752" y1="60.6633" x2="95.8242" y2="61.5019"
                        gradientUnits="userSpaceOnUse">
            <stop offset="0.18" stop-color="#5B4FEC"/>
            <stop offset="0.53" stop-color="#D99A7F"/>
            <stop offset="1" stop-color="white"/>
        </linearGradient>
        <linearGradient id="paint26_linear_6360_13712" x1="6.09008" y1="60.7671" x2="95.8268" y2="61.6057"
                        gradientUnits="userSpaceOnUse">
            <stop offset="0.18" stop-color="#5B4FEC"/>
            <stop offset="0.53" stop-color="#D99A7F"/>
            <stop offset="1" stop-color="white"/>
        </linearGradient>
        <linearGradient id="paint27_linear_6360_13712" x1="6.19336" y1="49.4502" x2="95.9301" y2="50.2888"
                        gradientUnits="userSpaceOnUse">
            <stop offset="0.18" stop-color="#5B4FEC"/>
            <stop offset="0.53" stop-color="#D99A7F"/>
            <stop offset="1" stop-color="white"/>
        </linearGradient>
        <linearGradient id="paint28_linear_6360_13712" x1="6.19173" y1="49.5547" x2="95.9285" y2="50.3933"
                        gradientUnits="userSpaceOnUse">
            <stop offset="0.18" stop-color="#5B4FEC"/>
            <stop offset="0.53" stop-color="#D99A7F"/>
            <stop offset="1" stop-color="white"/>
        </linearGradient>
        <linearGradient id="paint29_linear_6360_13712" x1="5.98452" y1="71.9802" x2="95.7213" y2="72.8188"
                        gradientUnits="userSpaceOnUse">
            <stop offset="0.18" stop-color="#5B4FEC"/>
            <stop offset="0.53" stop-color="#D99A7F"/>
            <stop offset="1" stop-color="white"/>
        </linearGradient>
        <linearGradient id="paint30_linear_6360_13712" x1="5.97964" y1="72.0846" x2="95.7197" y2="72.9232"
                        gradientUnits="userSpaceOnUse">
            <stop offset="0.18" stop-color="#5B4FEC"/>
            <stop offset="0.53" stop-color="#D99A7F"/>
            <stop offset="1" stop-color="white"/>
        </linearGradient>
        <linearGradient id="paint31_linear_6360_13712" x1="6.51036" y1="15.8162" x2="96.2471" y2="16.6548"
                        gradientUnits="userSpaceOnUse">
            <stop offset="0.18" stop-color="#5B4FEC"/>
            <stop offset="0.53" stop-color="#D99A7F"/>
            <stop offset="1" stop-color="white"/>
        </linearGradient>
        <linearGradient id="paint32_linear_6360_13712" x1="6.50646" y1="15.9239" x2="96.2432" y2="16.7625"
                        gradientUnits="userSpaceOnUse">
            <stop offset="0.18" stop-color="#5B4FEC"/>
            <stop offset="0.53" stop-color="#D99A7F"/>
            <stop offset="1" stop-color="white"/>
        </linearGradient>
        <linearGradient id="paint33_linear_6360_13712" x1="6.61202" y1="4.60603" x2="96.3488" y2="5.44463"
                        gradientUnits="userSpaceOnUse">
            <stop offset="0.18" stop-color="#5B4FEC"/>
            <stop offset="0.53" stop-color="#D99A7F"/>
            <stop offset="1" stop-color="white"/>
        </linearGradient>
        <linearGradient id="paint34_linear_6360_13712" x1="6.61137" y1="4.71044" x2="96.3514" y2="5.54904"
                        gradientUnits="userSpaceOnUse">
            <stop offset="0.18" stop-color="#5B4FEC"/>
            <stop offset="0.53" stop-color="#D99A7F"/>
            <stop offset="1" stop-color="white"/>
        </linearGradient>
        <linearGradient id="paint35_linear_6360_13712" x1="6.08944" y1="60.8748" x2="95.8262" y2="61.7134"
                        gradientUnits="userSpaceOnUse">
            <stop offset="0.18" stop-color="#5B4FEC"/>
            <stop offset="0.53" stop-color="#D99A7F"/>
            <stop offset="1" stop-color="white"/>
        </linearGradient>
        <linearGradient id="paint36_linear_6360_13712" x1="6.08388" y1="60.9792" x2="95.8207" y2="61.8178"
                        gradientUnits="userSpaceOnUse">
            <stop offset="0.18" stop-color="#5B4FEC"/>
            <stop offset="0.53" stop-color="#D99A7F"/>
            <stop offset="1" stop-color="white"/>
        </linearGradient>
        <linearGradient id="paint37_linear_6360_13712" x1="5.97899" y1="72.1923" x2="95.7157" y2="73.0309"
                        gradientUnits="userSpaceOnUse">
            <stop offset="0.18" stop-color="#5B4FEC"/>
            <stop offset="0.53" stop-color="#D99A7F"/>
            <stop offset="1" stop-color="white"/>
        </linearGradient>
        <linearGradient id="paint38_linear_6360_13712" x1="5.98223" y1="72.2967" x2="95.719" y2="73.1353"
                        gradientUnits="userSpaceOnUse">
            <stop offset="0.18" stop-color="#5B4FEC"/>
            <stop offset="0.53" stop-color="#D99A7F"/>
            <stop offset="1" stop-color="white"/>
        </linearGradient>
        <linearGradient id="paint39_linear_6360_13712" x1="6.50419" y1="16.0283" x2="96.2409" y2="16.8669"
                        gradientUnits="userSpaceOnUse">
            <stop offset="0.18" stop-color="#5B4FEC"/>
            <stop offset="0.53" stop-color="#D99A7F"/>
            <stop offset="1" stop-color="white"/>
        </linearGradient>
        <linearGradient id="paint40_linear_6360_13712" x1="6.50489" y1="16.1331" x2="96.2417" y2="16.9717"
                        gradientUnits="userSpaceOnUse">
            <stop offset="0.18" stop-color="#5B4FEC"/>
            <stop offset="0.53" stop-color="#D99A7F"/>
            <stop offset="1" stop-color="white"/>
        </linearGradient>
        <linearGradient id="paint41_linear_6360_13712" x1="6.61071" y1="4.81486" x2="96.3475" y2="5.65346"
                        gradientUnits="userSpaceOnUse">
            <stop offset="0.18" stop-color="#5B4FEC"/>
            <stop offset="0.53" stop-color="#D99A7F"/>
            <stop offset="1" stop-color="white"/>
        </linearGradient>
        <linearGradient id="paint42_linear_6360_13712" x1="6.61045" y1="4.92064" x2="96.3472" y2="5.75924"
                        gradientUnits="userSpaceOnUse">
            <stop offset="0.18" stop-color="#5B4FEC"/>
            <stop offset="0.53" stop-color="#D99A7F"/>
            <stop offset="1" stop-color="white"/>
        </linearGradient>
        <linearGradient id="paint43_linear_6360_13712" x1="6.08326" y1="61.0836" x2="95.82" y2="61.9222"
                        gradientUnits="userSpaceOnUse">
            <stop offset="0.18" stop-color="#5B4FEC"/>
            <stop offset="0.53" stop-color="#D99A7F"/>
            <stop offset="1" stop-color="white"/>
        </linearGradient>
        <linearGradient id="paint44_linear_6360_13712" x1="6.08396" y1="61.1855" x2="95.8207" y2="62.0241"
                        gradientUnits="userSpaceOnUse">
            <stop offset="0.18" stop-color="#5B4FEC"/>
            <stop offset="0.53" stop-color="#D99A7F"/>
            <stop offset="1" stop-color="white"/>
        </linearGradient>
        <linearGradient id="paint45_linear_6360_13712" x1="5.98095" y1="72.4011" x2="95.7177" y2="73.2397"
                        gradientUnits="userSpaceOnUse">
            <stop offset="0.18" stop-color="#5B4FEC"/>
            <stop offset="0.53" stop-color="#D99A7F"/>
            <stop offset="1" stop-color="white"/>
        </linearGradient>
        <linearGradient id="paint46_linear_6360_13712" x1="5.97742" y1="72.503" x2="95.7142" y2="73.3416"
                        gradientUnits="userSpaceOnUse">
            <stop offset="0.18" stop-color="#5B4FEC"/>
            <stop offset="0.53" stop-color="#D99A7F"/>
            <stop offset="1" stop-color="white"/>
        </linearGradient>
        <linearGradient id="paint47_linear_6360_13712" x1="6.50418" y1="16.3428" x2="96.241" y2="17.1814"
                        gradientUnits="userSpaceOnUse">
            <stop offset="0.18" stop-color="#5B4FEC"/>
            <stop offset="0.53" stop-color="#D99A7F"/>
            <stop offset="1" stop-color="white"/>
        </linearGradient>
        <linearGradient id="paint48_linear_6360_13712" x1="6.60583" y1="5.13038" x2="96.3426" y2="5.96898"
                        gradientUnits="userSpaceOnUse">
            <stop offset="0.18" stop-color="#5B4FEC"/>
            <stop offset="0.53" stop-color="#D99A7F"/>
            <stop offset="1" stop-color="white"/>
        </linearGradient>
        <linearGradient id="paint49_linear_6360_13712" x1="6.50771" y1="15.6073" x2="96.2445" y2="16.4459"
                        gradientUnits="userSpaceOnUse">
            <stop offset="0.18" stop-color="#5B4FEC"/>
            <stop offset="0.53" stop-color="#D99A7F"/>
            <stop offset="1" stop-color="white"/>
        </linearGradient>
        <linearGradient id="paint50_linear_6360_13712" x1="6.50085" y1="16.2344" x2="96.2409" y2="17.0763"
                        gradientUnits="userSpaceOnUse">
            <stop offset="0.18" stop-color="#5B4FEC"/>
            <stop offset="0.53" stop-color="#D99A7F"/>
            <stop offset="1" stop-color="white"/>
        </linearGradient>
        <linearGradient id="paint51_linear_6360_13712" x1="6.60738" y1="5.02525" x2="96.3474" y2="5.86385"
                        gradientUnits="userSpaceOnUse">
            <stop offset="0.18" stop-color="#5B4FEC"/>
            <stop offset="0.53" stop-color="#D99A7F"/>
            <stop offset="1" stop-color="white"/>
        </linearGradient>
        <clipPath id="clip0_6360_13712">
            <rect width="108" height="132.58" fill="white" transform="translate(0.5 0.709961)"/>
        </clipPath>
    </defs>
</svg>
