<svg width="43" height="54" viewBox="0 0 43 54" fill="none" xmlns="http://www.w3.org/2000/svg">
    <g clip-path="url(#clip0_6525_13400)">
        <path d="M16.0439 33.7241C16.0439 32.755 15.2557 31.9668 14.2866 31.9668C13.3175 31.9668 12.5293 32.755 12.5293 33.7241C12.5293 34.6932 13.3175 35.4814 14.2866 35.4814C15.2557 35.4814 16.0439 34.6932 16.0439 33.7241Z"
              fill="white"/>
        <path d="M14.2866 40.8877C13.3175 40.8877 12.5293 41.6759 12.5293 42.645C12.5293 43.6141 13.3175 44.4023 14.2866 44.4023C15.2557 44.4023 16.0439 43.6141 16.0439 42.645C16.0439 41.6759 15.2557 40.8877 14.2866 40.8877Z"
              fill="white"/>
        <path d="M16.517 36.4277C15.548 36.4277 14.7598 37.2159 14.7598 38.185C14.7598 39.1541 15.548 39.9423 16.517 39.9423C17.4861 39.9423 18.2743 39.1541 18.2743 38.185C18.2743 37.2159 17.4861 36.4277 16.517 36.4277Z"
              fill="white"/>
        <path d="M13.8134 38.185C13.8134 37.2159 13.0252 36.4277 12.0561 36.4277C11.087 36.4277 10.2988 37.2159 10.2988 38.185C10.2988 39.1541 11.087 39.9423 12.0561 39.9423C13.0252 39.9423 13.8134 39.1541 13.8134 38.185Z"
              fill="white"/>
        <path d="M12.0561 45.3506C11.087 45.3506 10.2988 46.1388 10.2988 47.1079C10.2988 48.0769 11.087 48.8651 12.0561 48.8651C13.0252 48.8651 13.8134 48.0769 13.8134 47.1079C13.8134 46.1388 13.0252 45.3506 12.0561 45.3506Z"
              fill="white"/>
        <path d="M8.32812 33.7241C8.32812 34.5498 9.00003 35.2217 9.82569 35.2217C10.6514 35.2217 11.3233 34.5498 11.3233 33.7241C11.3233 32.8985 10.6514 32.2266 9.82569 32.2266C9.00003 32.2266 8.32812 32.8985 8.32812 33.7241Z"
              fill="white"/>
        <path d="M9.82564 44.4023C10.7947 44.4023 11.5829 43.6141 11.5829 42.645C11.5829 41.6759 10.7947 40.8877 9.82564 40.8877C8.85655 40.8877 8.06836 41.6759 8.06836 42.645C8.06836 43.6141 8.85655 44.4023 9.82564 44.4023Z"
              fill="white"/>
        <path d="M7.5962 39.6826C8.42186 39.6826 9.09376 39.0107 9.09376 38.1851C9.09376 37.3594 8.42186 36.6875 7.5962 36.6875C6.77053 36.6875 6.09863 37.3594 6.09863 38.1851C6.09863 39.0107 6.77053 39.6826 7.5962 39.6826Z"
              fill="white"/>
        <path d="M9.09376 47.1079C9.09376 46.2823 8.42186 45.6104 7.5962 45.6104C6.77053 45.6104 6.09863 46.2823 6.09863 47.1079C6.09863 47.9336 6.77053 48.6055 7.5962 48.6055C8.42186 48.6055 9.09376 47.9336 9.09376 47.1079Z"
              fill="white"/>
        <path d="M3.13633 46.2129C2.64274 46.2129 2.24219 46.6134 2.24219 47.107C2.24219 47.6006 2.64274 48.0012 3.13633 48.0012C3.62992 48.0012 4.03048 47.6006 4.03048 47.107C4.03048 46.6134 3.62992 46.2129 3.13633 46.2129Z"
              fill="white"/>
        <path d="M19.0073 31.9668C18.0382 31.9668 17.25 32.755 17.25 33.7241C17.25 34.6932 18.0382 35.4814 19.0073 35.4814C19.9764 35.4814 20.7646 34.6932 20.7646 33.7241C20.7646 32.755 19.9764 31.9668 19.0073 31.9668Z"
              fill="white"/>
        <path d="M5.36546 43.7993C6.00118 43.7993 6.51803 43.2824 6.51803 42.6467C6.51803 42.011 6.00118 41.4941 5.36546 41.4941C4.72974 41.4941 4.21289 42.011 4.21289 42.6467C4.21289 43.2824 4.72974 43.7993 5.36546 43.7993Z"
              fill="white"/>
        <path d="M9.82564 49.7266C8.85655 49.7266 8.06836 50.5148 8.06836 51.4838C8.06836 52.4529 8.85655 53.2411 9.82564 53.2411C10.7947 53.2411 11.5829 52.4529 11.5829 51.4838C11.5829 50.5148 10.7947 49.7266 9.82564 49.7266Z"
              fill="white"/>
        <path d="M5.36546 50.332C4.72974 50.332 4.21289 50.8489 4.21289 51.4846C4.21289 52.1203 4.72974 52.6372 5.36546 52.6372C6.00118 52.6372 6.51803 52.1203 6.51803 51.4846C6.51803 50.8489 6.00118 50.332 5.36546 50.332Z"
              fill="white"/>
        <path d="M0.941704 50.7646C0.543732 50.7646 0.220703 51.0877 0.220703 51.4856C0.220703 51.8836 0.543732 52.2067 0.941704 52.2067C1.33968 52.2067 1.66271 51.8836 1.66271 51.4856C1.66271 51.0877 1.33968 50.7646 0.941704 50.7646Z"
              fill="white"/>
        <path d="M41.228 14.123C40.2589 14.123 39.4707 14.9112 39.4707 15.8803C39.4707 16.8494 40.2589 17.6376 41.228 17.6376C42.1971 17.6376 42.9853 16.8494 42.9853 15.8803C42.9853 14.9112 42.1971 14.123 41.228 14.123Z"
              fill="white"/>
        <path d="M40.7558 11.4184C40.7558 10.4493 39.9676 9.66113 38.9985 9.66113C38.0294 9.66113 37.2412 10.4493 37.2412 11.4184C37.2412 12.3875 38.0294 13.1757 38.9985 13.1757C39.9676 13.1757 40.7558 12.3875 40.7558 11.4184Z"
              fill="white"/>
        <path d="M38.9985 18.5859C38.0294 18.5859 37.2412 19.3741 37.2412 20.3432C37.2412 21.3123 38.0294 22.1005 38.9985 22.1005C39.9676 22.1005 40.7558 21.3123 40.7558 20.3432C40.7558 19.3741 39.9676 18.5859 38.9985 18.5859Z"
              fill="white"/>
        <path d="M34.0653 6.95943C34.0653 5.99034 33.2771 5.20215 32.3081 5.20215C31.339 5.20215 30.5508 5.99034 30.5508 6.95943C30.5508 7.92851 31.339 8.71671 32.3081 8.71671C33.2771 8.71671 34.0653 7.92851 34.0653 6.95943Z"
              fill="white"/>
        <path d="M34.5376 4.25675C35.5081 4.25675 36.2948 3.46998 36.2948 2.49947C36.2948 1.52895 35.5081 0.742188 34.5376 0.742188C33.567 0.742188 32.7803 1.52895 32.7803 2.49947C32.7803 3.46998 33.567 4.25675 34.5376 4.25675Z"
              fill="white"/>
        <path d="M30.0776 4.25479C31.0467 4.25479 31.8349 3.4666 31.8349 2.49751C31.8349 1.52843 31.0467 0.740234 30.0776 0.740234C29.1085 0.740234 28.3203 1.52843 28.3203 2.49751C28.3203 3.4666 29.1085 4.25479 30.0776 4.25479Z"
              fill="white"/>
        <path d="M38.5253 15.8803C38.5253 14.9112 37.7371 14.123 36.768 14.123C35.7989 14.123 35.0107 14.9112 35.0107 15.8803C35.0107 16.8494 35.7989 17.6376 36.768 17.6376C37.7371 17.6376 38.5253 16.8494 38.5253 15.8803Z"
              fill="white"/>
        <path d="M34.0653 15.8803C34.0653 14.9112 33.2771 14.123 32.3081 14.123C31.339 14.123 30.5508 14.9112 30.5508 15.8803C30.5508 16.8494 31.339 17.6376 32.3081 17.6376C33.2771 17.6376 34.0653 16.8494 34.0653 15.8803Z"
              fill="white"/>
        <path d="M34.5376 13.1757C35.5066 13.1757 36.2948 12.3875 36.2948 11.4184C36.2948 10.4493 35.5066 9.66113 34.5376 9.66113C33.5685 9.66113 32.7803 10.4493 32.7803 11.4184C32.7803 12.3875 33.5685 13.1757 34.5376 13.1757Z"
              fill="white"/>
        <path d="M28.3203 11.4184C28.3203 12.3875 29.1085 13.1757 30.0776 13.1757C31.0467 13.1757 31.8349 12.3875 31.8349 11.4184C31.8349 10.4493 31.0467 9.66113 30.0776 9.66113C29.1085 9.66113 28.3203 10.4493 28.3203 11.4184Z"
              fill="white"/>
        <path d="M36.768 23.0459C35.7989 23.0459 35.0107 23.8341 35.0107 24.8032C35.0107 25.7723 35.7989 26.5605 36.768 26.5605C37.7371 26.5605 38.5253 25.7723 38.5253 24.8032C38.5253 23.8341 37.7371 23.0459 36.768 23.0459Z"
              fill="white"/>
        <path d="M34.0653 24.8032C34.0653 23.8341 33.2771 23.0459 32.3081 23.0459C31.339 23.0459 30.5508 23.8341 30.5508 24.8032C30.5508 25.7723 31.339 26.5605 32.3081 26.5605C33.2771 26.5605 34.0653 25.7723 34.0653 24.8032Z"
              fill="white"/>
        <path d="M34.5376 22.1005C35.5066 22.1005 36.2948 21.3123 36.2948 20.3432C36.2948 19.3741 35.5066 18.5859 34.5376 18.5859C33.5685 18.5859 32.7803 19.3741 32.7803 20.3432C32.7803 21.3123 33.5685 22.1005 34.5376 22.1005Z"
              fill="white"/>
        <path d="M30.0776 22.1005C31.0467 22.1005 31.8349 21.3123 31.8349 20.3432C31.8349 19.3741 31.0467 18.5859 30.0776 18.5859C29.1085 18.5859 28.3203 19.3741 28.3203 20.3432C28.3203 21.3123 29.1085 22.1005 30.0776 22.1005Z"
              fill="white"/>
        <path d="M34.5376 27.5068C33.5685 27.5068 32.7803 28.295 32.7803 29.2641C32.7803 30.2332 33.5685 31.0214 34.5376 31.0214C35.5066 31.0214 36.2948 30.2332 36.2948 29.2641C36.2948 28.295 35.5066 27.5068 34.5376 27.5068Z"
              fill="white"/>
        <path d="M30.0776 27.5068C29.1085 27.5068 28.3203 28.295 28.3203 29.2641C28.3203 30.2332 29.1085 31.0214 30.0776 31.0214C31.0467 31.0214 31.8349 30.2332 31.8349 29.2641C31.8349 28.295 31.0467 27.5068 30.0776 27.5068Z"
              fill="white"/>
        <path d="M27.8471 8.71671C28.8162 8.71671 29.6044 7.92851 29.6044 6.95943C29.6044 5.99034 28.8162 5.20215 27.8471 5.20215C26.878 5.20215 26.0898 5.99034 26.0898 6.95943C26.0898 7.92851 26.878 8.71671 27.8471 8.71671Z"
              fill="white"/>
        <path d="M23.3862 8.71671C24.3553 8.71671 25.1435 7.92851 25.1435 6.95943C25.1435 5.99034 24.3553 5.20215 23.3862 5.20215C22.4171 5.20215 21.6289 5.99034 21.6289 6.95943C21.6289 7.92851 22.4171 8.71671 23.3862 8.71671Z"
              fill="white"/>
        <path d="M27.3739 2.49947C27.3739 1.53038 26.5857 0.742188 25.6167 0.742188C24.6476 0.742188 23.8594 1.53038 23.8594 2.49947C23.8594 3.46855 24.6476 4.25675 25.6167 4.25675C26.5857 4.25675 27.3739 3.46855 27.3739 2.49947Z"
              fill="white"/>
        <path d="M22.914 2.49947C22.914 1.53038 22.1258 0.742188 21.1567 0.742188C20.1876 0.742188 19.3994 1.53038 19.3994 2.49947C19.3994 3.46855 20.1876 4.25675 21.1567 4.25675C22.1258 4.25675 22.914 3.46855 22.914 2.49947Z"
              fill="white"/>
        <path d="M29.6044 24.8032C29.6044 23.8341 28.8162 23.0459 27.8471 23.0459C26.878 23.0459 26.0898 23.8341 26.0898 24.8032C26.0898 25.7723 26.878 26.5605 27.8471 26.5605C28.8162 26.5605 29.6044 25.7723 29.6044 24.8032Z"
              fill="white"/>
        <path d="M25.1435 24.8032C25.1435 23.8341 24.3553 23.0459 23.3862 23.0459C22.4171 23.0459 21.6289 23.8341 21.6289 24.8032C21.6289 25.7723 22.4171 26.5605 23.3862 26.5605C24.3553 26.5605 25.1435 25.7723 25.1435 24.8032Z"
              fill="white"/>
        <path d="M25.6167 27.5068C24.6476 27.5068 23.8594 28.295 23.8594 29.2641C23.8594 30.2332 24.6476 31.0214 25.6167 31.0214C26.5857 31.0214 27.3739 30.2332 27.3739 29.2641C27.3739 28.295 26.5857 27.5068 25.6167 27.5068Z"
              fill="white"/>
        <path d="M21.1567 27.5068C20.1876 27.5068 19.3994 28.295 19.3994 29.2641C19.3994 30.2332 20.1876 31.0214 21.1567 31.0214C22.1258 31.0214 22.914 30.2332 22.914 29.2641C22.914 28.295 22.1258 27.5068 21.1567 27.5068Z"
              fill="white"/>
        <path d="M18.9262 5.20215C17.9571 5.20215 17.1689 5.99034 17.1689 6.95943C17.1689 7.92851 17.9571 8.71671 18.9262 8.71671C19.8953 8.71671 20.6835 7.92851 20.6835 6.95943C20.6835 5.99034 19.8953 5.20215 18.9262 5.20215Z"
              fill="white"/>
        <path d="M14.4624 5.46094C13.6367 5.46094 12.9648 6.13284 12.9648 6.9585C12.9648 7.78416 13.6367 8.45606 14.4624 8.45606C15.2881 8.45606 15.96 7.78416 15.96 6.9585C15.96 6.13284 15.2881 5.46094 14.4624 5.46094Z"
              fill="white"/>
        <path d="M16.6958 4.25675C17.6663 4.25675 18.453 3.46998 18.453 2.49947C18.453 1.52895 17.6663 0.742188 16.6958 0.742188C15.7252 0.742188 14.9385 1.52895 14.9385 2.49947C14.9385 3.46998 15.7252 4.25675 16.6958 4.25675Z"
              fill="white"/>
        <path d="M12.2358 3.99513C13.0615 3.99513 13.7334 3.32323 13.7334 2.49756C13.7334 1.6719 13.0615 1 12.2358 1C11.4102 1 10.7383 1.6719 10.7383 2.49756C10.7383 3.32323 11.4102 3.99513 12.2358 3.99513Z"
              fill="white"/>
        <path d="M20.6835 24.8032C20.6835 23.8341 19.8953 23.0459 18.9262 23.0459C17.9571 23.0459 17.1689 23.8341 17.1689 24.8032C17.1689 25.7723 17.9571 26.5605 18.9262 26.5605C19.8953 26.5605 20.6835 25.7723 20.6835 24.8032Z"
              fill="white"/>
        <path d="M15.96 24.8023C15.96 23.9766 15.2881 23.3047 14.4624 23.3047C13.6367 23.3047 12.9648 23.9766 12.9648 24.8023C12.9648 25.6279 13.6367 26.2998 14.4624 26.2998C15.2881 26.2998 15.96 25.6279 15.96 24.8023Z"
              fill="white"/>
        <path d="M18.453 29.2641C18.453 28.295 17.6648 27.5068 16.6958 27.5068C15.7267 27.5068 14.9385 28.295 14.9385 29.2641C14.9385 30.2332 15.7267 31.0214 16.6958 31.0214C17.6648 31.0214 18.453 30.2332 18.453 29.2641Z"
              fill="white"/>
        <path d="M13.7334 29.2642C13.7334 28.4385 13.0615 27.7666 12.2358 27.7666C11.4102 27.7666 10.7383 28.4385 10.7383 29.2642C10.7383 30.0898 11.4102 30.7617 12.2358 30.7617C13.0615 30.7617 13.7334 30.0898 13.7334 29.2642Z"
              fill="white"/>
        <path d="M5.54258 7.85274C6.03617 7.85274 6.43673 7.45219 6.43673 6.9586C6.43673 6.46501 6.03617 6.06445 5.54258 6.06445C5.04899 6.06445 4.64844 6.46501 4.64844 6.9586C4.64844 7.45219 5.04899 7.85274 5.54258 7.85274Z"
              fill="white"/>
        <path d="M3.31211 1.60449C2.81853 1.60449 2.41797 2.00505 2.41797 2.49864C2.41797 2.99223 2.81853 3.39278 3.31211 3.39278C3.8057 3.39278 4.20626 2.99223 4.20626 2.49864C4.20626 2.00505 3.8057 1.60449 3.31211 1.60449Z"
              fill="white"/>
        <path d="M38.5253 6.95943C38.5253 5.99034 37.7371 5.20215 36.768 5.20215C35.7989 5.20215 35.0107 5.99034 35.0107 6.95943C35.0107 7.92851 35.7989 8.71671 36.768 8.71671C37.7371 8.71671 38.5253 7.92851 38.5253 6.95943Z"
              fill="white"/>
        <path d="M10.0051 8.11178C10.6408 8.11178 11.1577 7.59493 11.1577 6.95921C11.1577 6.32349 10.6408 5.80664 10.0051 5.80664C9.36939 5.80664 8.85254 6.32349 8.85254 6.95921C8.85254 7.59493 9.36939 8.11178 10.0051 8.11178Z"
              fill="white"/>
        <path d="M7.77464 3.65182C8.41118 3.65182 8.92721 3.13579 8.92721 2.49925C8.92721 1.8627 8.41118 1.34668 7.77464 1.34668C7.13809 1.34668 6.62207 1.8627 6.62207 2.49925C6.62207 3.13579 7.13809 3.65182 7.77464 3.65182Z"
              fill="white"/>
    </g>
    <defs>
        <clipPath id="clip0_6525_13400">
            <rect width="42.7665" height="52.5" fill="white" transform="translate(0.22168 0.742188)"/>
        </clipPath>
    </defs>
</svg>
