<svg width="93" height="32" viewBox="0 0 93 32" fill="none" xmlns="http://www.w3.org/2000/svg">
    <g clip-path="url(#clip0_6525_6455)">
        <path d="M8.77999 18.9378C8.77999 18.4002 8.3427 17.9629 7.80504 17.9629C7.26738 17.9629 6.83008 18.4002 6.83008 18.9378C6.83008 19.4755 7.26738 19.9128 7.80504 19.9128C8.3427 19.9128 8.77999 19.4755 8.77999 18.9378Z"
              fill="url(#paint0_linear_6525_6455)"/>
        <path d="M7.80504 22.9131C7.26738 22.9131 6.83008 23.3504 6.83008 23.888C6.83008 24.4257 7.26738 24.863 7.80504 24.863C8.3427 24.863 8.77999 24.4257 8.77999 23.888C8.77999 23.3504 8.3427 22.9131 7.80504 22.9131Z"
              fill="url(#paint1_linear_6525_6455)"/>
        <path d="M9.04234 20.4375C8.50468 20.4375 8.06738 20.8748 8.06738 21.4125C8.06738 21.9501 8.50468 22.3874 9.04234 22.3874C9.58 22.3874 10.0173 21.9501 10.0173 21.4125C10.0173 20.8748 9.58 20.4375 9.04234 20.4375Z"
              fill="url(#paint2_linear_6525_6455)"/>
        <path d="M7.54171 21.4125C7.54171 20.8748 7.10441 20.4375 6.56675 20.4375C6.02909 20.4375 5.5918 20.8748 5.5918 21.4125C5.5918 21.9501 6.02909 22.3874 6.56675 22.3874C7.10441 22.3874 7.54171 21.9501 7.54171 21.4125Z"
              fill="url(#paint3_linear_6525_6455)"/>
        <path d="M6.56675 25.3877C6.02909 25.3877 5.5918 25.825 5.5918 26.3627C5.5918 26.9003 6.02909 27.3376 6.56675 27.3376C7.10441 27.3376 7.54171 26.9003 7.54171 26.3627C7.54171 25.825 7.10441 25.3877 6.56675 25.3877Z"
              fill="url(#paint4_linear_6525_6455)"/>
        <path d="M4.49902 18.9383C4.49902 19.3964 4.8718 19.7692 5.32989 19.7692C5.78797 19.7692 6.16075 19.3964 6.16075 18.9383C6.16075 18.4802 5.78797 18.1074 5.32989 18.1074C4.8718 18.1074 4.49902 18.4802 4.49902 18.9383Z"
              fill="url(#paint5_linear_6525_6455)"/>
        <path d="M5.33043 24.863C5.86809 24.863 6.30538 24.4257 6.30538 23.888C6.30538 23.3504 5.86809 22.9131 5.33043 22.9131C4.79277 22.9131 4.35547 23.3504 4.35547 23.888C4.35547 24.4257 4.79277 24.863 5.33043 24.863Z"
              fill="url(#paint6_linear_6525_6455)"/>
        <path d="M4.09258 22.2438C4.55067 22.2438 4.92345 21.871 4.92345 21.4129C4.92345 20.9548 4.55067 20.582 4.09258 20.582C3.6345 20.582 3.26172 20.9548 3.26172 21.4129C3.26172 21.871 3.6345 22.2438 4.09258 22.2438Z"
              fill="url(#paint7_linear_6525_6455)"/>
        <path d="M4.92345 26.3631C4.92345 25.905 4.55067 25.5322 4.09258 25.5322C3.6345 25.5322 3.26172 25.905 3.26172 26.3631C3.26172 26.8212 3.6345 27.194 4.09258 27.194C4.55067 27.194 4.92345 26.8212 4.92345 26.3631Z"
              fill="url(#paint8_linear_6525_6455)"/>
        <path d="M1.61815 25.8662C1.3443 25.8662 1.12207 26.0884 1.12207 26.3623C1.12207 26.6361 1.3443 26.8584 1.61815 26.8584C1.892 26.8584 2.11423 26.6361 2.11423 26.3623C2.11423 26.0884 1.892 25.8662 1.61815 25.8662Z"
              fill="url(#paint9_linear_6525_6455)"/>
        <path d="M10.4232 17.9629C9.88554 17.9629 9.44824 18.4002 9.44824 18.9378C9.44824 19.4755 9.88554 19.9128 10.4232 19.9128C10.9609 19.9128 11.3982 19.4755 11.3982 18.9378C11.3982 18.4002 10.9609 17.9629 10.4232 17.9629Z"
              fill="url(#paint10_linear_6525_6455)"/>
        <path d="M2.85528 24.527C3.20798 24.527 3.49473 24.2402 3.49473 23.8875C3.49473 23.5348 3.20798 23.248 2.85528 23.248C2.50257 23.248 2.21582 23.5348 2.21582 23.8875C2.21582 24.2402 2.50257 24.527 2.85528 24.527Z"
              fill="url(#paint11_linear_6525_6455)"/>
        <path d="M5.33043 27.8164C4.79277 27.8164 4.35547 28.2537 4.35547 28.7914C4.35547 29.329 4.79277 29.7663 5.33043 29.7663C5.86809 29.7663 6.30538 29.329 6.30538 28.7914C6.30538 28.2537 5.86809 27.8164 5.33043 27.8164Z"
              fill="url(#paint12_linear_6525_6455)"/>
        <path d="M2.85528 28.1523C2.50257 28.1523 2.21582 28.4391 2.21582 28.7918C2.21582 29.1445 2.50257 29.4313 2.85528 29.4313C3.20798 29.4313 3.49473 29.1445 3.49473 28.7918C3.49473 28.4391 3.20798 28.1523 2.85528 28.1523Z"
              fill="url(#paint13_linear_6525_6455)"/>
        <path d="M0.400019 28.3926C0.17922 28.3926 0 28.5718 0 28.7926C0 29.0134 0.17922 29.1926 0.400019 29.1926C0.620818 29.1926 0.800039 29.0134 0.800039 28.7926C0.800039 28.5718 0.620818 28.3926 0.400019 28.3926Z"
              fill="url(#paint14_linear_6525_6455)"/>
        <path d="M22.7523 8.06445C22.2146 8.06445 21.7773 8.50175 21.7773 9.03941C21.7773 9.57707 22.2146 10.0144 22.7523 10.0144C23.29 10.0144 23.7273 9.57707 23.7273 9.03941C23.7273 8.50175 23.29 8.06445 22.7523 8.06445Z"
              fill="url(#paint15_linear_6525_6455)"/>
        <path d="M22.489 6.56285C22.489 6.02519 22.0517 5.58789 21.514 5.58789C20.9764 5.58789 20.5391 6.02519 20.5391 6.56285C20.5391 7.10051 20.9764 7.5378 21.514 7.5378C22.0517 7.5378 22.489 7.10051 22.489 6.56285Z"
              fill="url(#paint16_linear_6525_6455)"/>
        <path d="M21.515 10.5381C20.9773 10.5381 20.54 10.9754 20.54 11.513C20.54 12.0507 20.9773 12.488 21.515 12.488C22.0527 12.488 22.49 12.0507 22.49 11.513C22.49 10.9754 22.0527 10.5381 21.515 10.5381Z"
              fill="url(#paint17_linear_6525_6455)"/>
        <path d="M18.7771 4.08921C18.7771 3.55155 18.3398 3.11426 17.8021 3.11426C17.2644 3.11426 16.8271 3.55155 16.8271 4.08921C16.8271 4.62688 17.2644 5.06417 17.8021 5.06417C18.3398 5.06417 18.7771 4.62688 18.7771 4.08921Z"
              fill="url(#paint18_linear_6525_6455)"/>
        <path d="M19.0394 2.58859C19.5779 2.58859 20.0144 2.15208 20.0144 1.61363C20.0144 1.07518 19.5779 0.638672 19.0394 0.638672C18.501 0.638672 18.0645 1.07518 18.0645 1.61363C18.0645 2.15208 18.501 2.58859 19.0394 2.58859Z"
              fill="url(#paint19_linear_6525_6455)"/>
        <path d="M16.5648 2.58761C17.1025 2.58761 17.5398 2.15031 17.5398 1.61265C17.5398 1.07499 17.1025 0.637695 16.5648 0.637695C16.0271 0.637695 15.5898 1.07499 15.5898 1.61265C15.5898 2.15031 16.0271 2.58761 16.5648 2.58761Z"
              fill="url(#paint20_linear_6525_6455)"/>
        <path d="M21.2517 9.03941C21.2517 8.50175 20.8144 8.06445 20.2767 8.06445C19.7391 8.06445 19.3018 8.50175 19.3018 9.03941C19.3018 9.57707 19.7391 10.0144 20.2767 10.0144C20.8144 10.0144 21.2517 9.57707 21.2517 9.03941Z"
              fill="url(#paint21_linear_6525_6455)"/>
        <path d="M18.7771 9.03941C18.7771 8.50175 18.3398 8.06445 17.8021 8.06445C17.2644 8.06445 16.8271 8.50175 16.8271 9.03941C16.8271 9.57707 17.2644 10.0144 17.8021 10.0144C18.3398 10.0144 18.7771 9.57707 18.7771 9.03941Z"
              fill="url(#paint22_linear_6525_6455)"/>
        <path d="M19.0394 7.5378C19.5771 7.5378 20.0144 7.10051 20.0144 6.56285C20.0144 6.02519 19.5771 5.58789 19.0394 5.58789C18.5017 5.58789 18.0645 6.02519 18.0645 6.56285C18.0645 7.10051 18.5017 7.5378 19.0394 7.5378Z"
              fill="url(#paint23_linear_6525_6455)"/>
        <path d="M15.5898 6.56285C15.5898 7.10051 16.0271 7.5378 16.5648 7.5378C17.1025 7.5378 17.5398 7.10051 17.5398 6.56285C17.5398 6.02519 17.1025 5.58789 16.5648 5.58789C16.0271 5.58789 15.5898 6.02519 15.5898 6.56285Z"
              fill="url(#paint24_linear_6525_6455)"/>
        <path d="M20.2767 13.0137C19.7391 13.0137 19.3018 13.451 19.3018 13.9886C19.3018 14.5263 19.7391 14.9636 20.2767 14.9636C20.8144 14.9636 21.2517 14.5263 21.2517 13.9886C21.2517 13.451 20.8144 13.0137 20.2767 13.0137Z"
              fill="url(#paint25_linear_6525_6455)"/>
        <path d="M18.7771 13.9886C18.7771 13.451 18.3398 13.0137 17.8021 13.0137C17.2644 13.0137 16.8271 13.451 16.8271 13.9886C16.8271 14.5263 17.2644 14.9636 17.8021 14.9636C18.3398 14.9636 18.7771 14.5263 18.7771 13.9886Z"
              fill="url(#paint26_linear_6525_6455)"/>
        <path d="M19.0394 12.488C19.5771 12.488 20.0144 12.0507 20.0144 11.513C20.0144 10.9754 19.5771 10.5381 19.0394 10.5381C18.5017 10.5381 18.0645 10.9754 18.0645 11.513C18.0645 12.0507 18.5017 12.488 19.0394 12.488Z"
              fill="url(#paint27_linear_6525_6455)"/>
        <path d="M16.5648 12.488C17.1025 12.488 17.5398 12.0507 17.5398 11.513C17.5398 10.9754 17.1025 10.5381 16.5648 10.5381C16.0271 10.5381 15.5898 10.9754 15.5898 11.513C15.5898 12.0507 16.0271 12.488 16.5648 12.488Z"
              fill="url(#paint28_linear_6525_6455)"/>
        <path d="M19.0394 15.4893C18.5017 15.4893 18.0645 15.9266 18.0645 16.4642C18.0645 17.0019 18.5017 17.4392 19.0394 17.4392C19.5771 17.4392 20.0144 17.0019 20.0144 16.4642C20.0144 15.9266 19.5771 15.4893 19.0394 15.4893Z"
              fill="url(#paint29_linear_6525_6455)"/>
        <path d="M16.5648 15.4893C16.0271 15.4893 15.5898 15.9266 15.5898 16.4642C15.5898 17.0019 16.0271 17.4392 16.5648 17.4392C17.1025 17.4392 17.5398 17.0019 17.5398 16.4642C17.5398 15.9266 17.1025 15.4893 16.5648 15.4893Z"
              fill="url(#paint30_linear_6525_6455)"/>
        <path d="M15.3285 5.06417C15.8661 5.06417 16.3034 4.62688 16.3034 4.08921C16.3034 3.55155 15.8661 3.11426 15.3285 3.11426C14.7908 3.11426 14.3535 3.55155 14.3535 4.08921C14.3535 4.62688 14.7908 5.06417 15.3285 5.06417Z"
              fill="url(#paint31_linear_6525_6455)"/>
        <path d="M12.8539 5.06417C13.3915 5.06417 13.8288 4.62688 13.8288 4.08921C13.8288 3.55155 13.3915 3.11426 12.8539 3.11426C12.3162 3.11426 11.8789 3.55155 11.8789 4.08921C11.8789 4.62688 12.3162 5.06417 12.8539 5.06417Z"
              fill="url(#paint32_linear_6525_6455)"/>
        <path d="M15.0642 1.61363C15.0642 1.07597 14.6269 0.638672 14.0892 0.638672C13.5516 0.638672 13.1143 1.07597 13.1143 1.61363C13.1143 2.15129 13.5516 2.58859 14.0892 2.58859C14.6269 2.58859 15.0642 2.15129 15.0642 1.61363Z"
              fill="url(#paint33_linear_6525_6455)"/>
        <path d="M12.5896 1.61363C12.5896 1.07597 12.1523 0.638672 11.6146 0.638672C11.0769 0.638672 10.6396 1.07597 10.6396 1.61363C10.6396 2.15129 11.0769 2.58859 11.6146 2.58859C12.1523 2.58859 12.5896 2.15129 12.5896 1.61363Z"
              fill="url(#paint34_linear_6525_6455)"/>
        <path d="M16.3034 13.9886C16.3034 13.451 15.8661 13.0137 15.3285 13.0137C14.7908 13.0137 14.3535 13.451 14.3535 13.9886C14.3535 14.5263 14.7908 14.9636 15.3285 14.9636C15.8661 14.9636 16.3034 14.5263 16.3034 13.9886Z"
              fill="url(#paint35_linear_6525_6455)"/>
        <path d="M13.8269 13.9886C13.8269 13.451 13.3896 13.0137 12.8519 13.0137C12.3143 13.0137 11.877 13.451 11.877 13.9886C11.877 14.5263 12.3143 14.9636 12.8519 14.9636C13.3896 14.9636 13.8269 14.5263 13.8269 13.9886Z"
              fill="url(#paint36_linear_6525_6455)"/>
        <path d="M14.0892 15.4893C13.5516 15.4893 13.1143 15.9266 13.1143 16.4642C13.1143 17.0019 13.5516 17.4392 14.0892 17.4392C14.6269 17.4392 15.0642 17.0019 15.0642 16.4642C15.0642 15.9266 14.6269 15.4893 14.0892 15.4893Z"
              fill="url(#paint37_linear_6525_6455)"/>
        <path d="M11.6166 15.4893C11.0789 15.4893 10.6416 15.9266 10.6416 16.4642C10.6416 17.0019 11.0789 17.4392 11.6166 17.4392C12.1542 17.4392 12.5915 17.0019 12.5915 16.4642C12.5915 15.9266 12.1542 15.4893 11.6166 15.4893Z"
              fill="url(#paint38_linear_6525_6455)"/>
        <path d="M10.3763 3.11426C9.83866 3.11426 9.40137 3.55155 9.40137 4.08921C9.40137 4.62688 9.83866 5.06417 10.3763 5.06417C10.914 5.06417 11.3513 4.62688 11.3513 4.08921C11.3513 3.55155 10.914 3.11426 10.3763 3.11426Z"
              fill="url(#paint39_linear_6525_6455)"/>
        <path d="M7.90215 3.25781C7.44407 3.25781 7.07129 3.63059 7.07129 4.08868C7.07129 4.54676 7.44407 4.91954 7.90215 4.91954C8.36024 4.91954 8.73302 4.54676 8.73302 4.08868C8.73302 3.63059 8.36024 3.25781 7.90215 3.25781Z"
              fill="url(#paint40_linear_6525_6455)"/>
        <path d="M9.14097 2.58859C9.67943 2.58859 10.1159 2.15208 10.1159 1.61363C10.1159 1.07518 9.67943 0.638672 9.14097 0.638672C8.60252 0.638672 8.16602 1.07518 8.16602 1.61363C8.16602 2.15208 8.60252 2.58859 9.14097 2.58859Z"
              fill="url(#paint41_linear_6525_6455)"/>
        <path d="M6.66485 2.44493C7.12294 2.44493 7.49571 2.07215 7.49571 1.61407C7.49571 1.15598 7.12294 0.783203 6.66485 0.783203C6.20676 0.783203 5.83398 1.15598 5.83398 1.61407C5.83398 2.07215 6.20676 2.44493 6.66485 2.44493Z"
              fill="url(#paint42_linear_6525_6455)"/>
        <path d="M11.3513 13.9886C11.3513 13.451 10.914 13.0137 10.3763 13.0137C9.83866 13.0137 9.40137 13.451 9.40137 13.9886C9.40137 14.5263 9.83866 14.9636 10.3763 14.9636C10.914 14.9636 11.3513 14.5263 11.3513 13.9886Z"
              fill="url(#paint43_linear_6525_6455)"/>
        <path d="M8.73302 13.9881C8.73302 13.53 8.36024 13.1572 7.90215 13.1572C7.44407 13.1572 7.07129 13.53 7.07129 13.9881C7.07129 14.4462 7.44407 14.819 7.90215 14.819C8.36024 14.819 8.73302 14.4462 8.73302 13.9881Z"
              fill="url(#paint44_linear_6525_6455)"/>
        <path d="M10.1159 16.4642C10.1159 15.9266 9.67863 15.4893 9.14097 15.4893C8.60331 15.4893 8.16602 15.9266 8.16602 16.4642C8.16602 17.0019 8.60331 17.4392 9.14097 17.4392C9.67863 17.4392 10.1159 17.0019 10.1159 16.4642Z"
              fill="url(#paint45_linear_6525_6455)"/>
        <path d="M7.49571 16.4637C7.49571 16.0056 7.12294 15.6328 6.66485 15.6328C6.20676 15.6328 5.83398 16.0056 5.83398 16.4637C5.83398 16.9218 6.20676 17.2945 6.66485 17.2945C7.12294 17.2945 7.49571 16.9218 7.49571 16.4637Z"
              fill="url(#paint46_linear_6525_6455)"/>
        <path d="M2.95311 4.58494C3.22696 4.58494 3.44919 4.3627 3.44919 4.08885C3.44919 3.81501 3.22696 3.59277 2.95311 3.59277C2.67926 3.59277 2.45703 3.81501 2.45703 4.08885C2.45703 4.3627 2.67926 4.58494 2.95311 4.58494Z"
              fill="url(#paint47_linear_6525_6455)"/>
        <path d="M1.71581 1.11719C1.44196 1.11719 1.21973 1.33942 1.21973 1.61327C1.21973 1.88712 1.44196 2.10935 1.71581 2.10935C1.98966 2.10935 2.21189 1.88712 2.21189 1.61327C2.21189 1.33942 1.98966 1.11719 1.71581 1.11719Z"
              fill="url(#paint48_linear_6525_6455)"/>
        <path d="M21.2517 4.08921C21.2517 3.55155 20.8144 3.11426 20.2767 3.11426C19.7391 3.11426 19.3018 3.55155 19.3018 4.08921C19.3018 4.62688 19.7391 5.06417 20.2767 5.06417C20.8144 5.06417 21.2517 4.62688 21.2517 4.08921Z"
              fill="url(#paint49_linear_6525_6455)"/>
        <path d="M5.42754 4.72813C5.78025 4.72813 6.067 4.44138 6.067 4.08868C6.067 3.73597 5.78025 3.44922 5.42754 3.44922C5.07484 3.44922 4.78809 3.73597 4.78809 4.08868C4.78809 4.44138 5.07484 4.72813 5.42754 4.72813Z"
              fill="url(#paint50_linear_6525_6455)"/>
        <path d="M4.19121 2.25352C4.54438 2.25352 4.83067 1.96723 4.83067 1.61407C4.83067 1.2609 4.54438 0.974609 4.19121 0.974609C3.83805 0.974609 3.55176 1.2609 3.55176 1.61407C3.55176 1.96723 3.83805 2.25352 4.19121 2.25352Z"
              fill="url(#paint51_linear_6525_6455)"/>
    </g>
    <path d="M36.7982 18.6387V3.99158H43.1383C44.4496 3.99158 45.5795 4.2078 46.5281 4.64024C47.4767 5.05873 48.209 5.66554 48.7252 6.46066C49.2413 7.25579 49.4994 8.20436 49.4994 9.30638C49.4994 10.3945 49.2413 11.3361 48.7252 12.1312C48.209 12.9263 47.4767 13.5401 46.5281 13.9725C45.5795 14.391 44.4496 14.6003 43.1383 14.6003H38.6814L40.188 13.0728V18.6387H36.7982ZM40.188 13.4494L38.6814 11.8382H42.95C43.9962 11.8382 44.7774 11.615 45.2936 11.1687C45.8097 10.7223 46.0678 10.1015 46.0678 9.30638C46.0678 8.49731 45.8097 7.86957 45.2936 7.42319C44.7774 6.9768 43.9962 6.75361 42.95 6.75361H38.6814L40.188 5.14243V13.4494ZM51.9194 18.6387V3.99158H55.3092V18.6387H51.9194ZM65.8995 18.8898C64.7417 18.8898 63.6676 18.7014 62.6772 18.3248C61.7007 17.9482 60.8498 17.4181 60.1244 16.7346C59.413 16.051 58.855 15.2489 58.4504 14.3282C58.0599 13.4076 57.8646 12.4032 57.8646 11.3151C57.8646 10.2271 58.0599 9.22269 58.4504 8.30201C58.855 7.38134 59.4199 6.57924 60.1453 5.8957C60.8707 5.21217 61.7216 4.68209 62.6981 4.30545C63.6746 3.92881 64.7347 3.74049 65.8786 3.74049C67.0364 3.74049 68.0966 3.92881 69.0591 4.30545C70.0356 4.68209 70.8795 5.21217 71.591 5.8957C72.3164 6.57924 72.8813 7.38134 73.2858 8.30201C73.6904 9.20874 73.8927 10.2131 73.8927 11.3151C73.8927 12.4032 73.6904 13.4145 73.2858 14.3492C72.8813 15.2698 72.3164 16.0719 71.591 16.7555C70.8795 17.4251 70.0356 17.9482 69.0591 18.3248C68.0966 18.7014 67.0434 18.8898 65.8995 18.8898ZM65.8786 16.0022C66.5342 16.0022 67.1341 15.8906 67.6781 15.6674C68.2361 15.4442 68.7243 15.1234 69.1428 14.7049C69.5613 14.2864 69.8821 13.7912 70.1053 13.2192C70.3425 12.6473 70.4611 12.0126 70.4611 11.3151C70.4611 10.6176 70.3425 9.98294 70.1053 9.41101C69.8821 8.83907 69.5613 8.34386 69.1428 7.92537C68.7383 7.50688 68.257 7.18604 67.699 6.96285C67.141 6.73966 66.5342 6.62806 65.8786 6.62806C65.223 6.62806 64.6162 6.73966 64.0582 6.96285C63.5141 7.18604 63.0329 7.50688 62.6144 7.92537C62.1959 8.34386 61.8681 8.83907 61.631 9.41101C61.4078 9.98294 61.2962 10.6176 61.2962 11.3151C61.2962 11.9987 61.4078 12.6334 61.631 13.2192C61.8681 13.7912 62.1889 14.2864 62.5935 14.7049C63.012 15.1234 63.5002 15.4442 64.0582 15.6674C64.6162 15.8906 65.223 16.0022 65.8786 16.0022ZM76.4402 18.6387V3.99158H79.2441L87.8859 14.5375H86.5258V3.99158H89.8737V18.6387H87.0907L78.428 8.09277H79.7881V18.6387H76.4402ZM36.045 29.6387V22.3151H37.1644L41.7573 27.9543H41.2028V22.3151H42.5525V29.6387H41.433L36.8401 23.9995H37.3946V29.6387H36.045ZM45.7703 25.3596H49.4112V26.4791H45.7703V25.3596ZM45.8749 28.4983H50.0075V29.6387H44.5149V22.3151H49.861V23.4555H45.8749V28.4983ZM53.0094 29.6387V23.466H50.5821V22.3151H56.7967V23.466H54.3694V29.6387H53.0094ZM59.4313 29.6387L57.004 22.3151H58.4164L60.5821 28.9377H59.8811L62.1305 22.3151H63.386L65.5726 28.9377H64.8925L67.1105 22.3151H68.4078L65.9806 29.6387H64.5368L62.5385 23.6648H62.9152L60.8855 29.6387H59.4313ZM72.8759 29.7433C72.304 29.7433 71.7774 29.6491 71.2961 29.4608C70.8149 29.2725 70.3964 29.0109 70.0407 28.6761C69.685 28.3344 69.4095 27.9368 69.2142 27.4835C69.0189 27.0231 68.9212 26.5209 68.9212 25.9769C68.9212 25.4329 69.0189 24.9342 69.2142 24.4808C69.4095 24.0205 69.685 23.6229 70.0407 23.2881C70.3964 22.9463 70.8149 22.6813 71.2961 22.493C71.7774 22.3047 72.3005 22.2105 72.8655 22.2105C73.4374 22.2105 73.9605 22.3047 74.4348 22.493C74.9161 22.6813 75.3346 22.9463 75.6903 23.2881C76.046 23.6229 76.3215 24.0205 76.5168 24.4808C76.7121 24.9342 76.8097 25.4329 76.8097 25.9769C76.8097 26.5209 76.7121 27.0231 76.5168 27.4835C76.3215 27.9438 76.046 28.3414 75.6903 28.6761C75.3346 29.0109 74.9161 29.2725 74.4348 29.4608C73.9605 29.6491 73.4409 29.7433 72.8759 29.7433ZM72.8655 28.5506C73.2351 28.5506 73.5769 28.4878 73.8908 28.3623C74.2046 28.2367 74.4767 28.0589 74.7068 27.8287C74.937 27.5916 75.1149 27.3195 75.2404 27.0127C75.3729 26.6988 75.4392 26.3535 75.4392 25.9769C75.4392 25.6003 75.3729 25.2585 75.2404 24.9516C75.1149 24.6377 74.937 24.3657 74.7068 24.1356C74.4767 23.8984 74.2046 23.7171 73.8908 23.5915C73.5769 23.466 73.2351 23.4032 72.8655 23.4032C72.4958 23.4032 72.1541 23.466 71.8402 23.5915C71.5333 23.7171 71.2613 23.8984 71.0241 24.1356C70.794 24.3657 70.6126 24.6377 70.4801 24.9516C70.3546 25.2585 70.2918 25.6003 70.2918 25.9769C70.2918 26.3466 70.3546 26.6883 70.4801 27.0022C70.6126 27.3161 70.794 27.5916 71.0241 27.8287C71.2543 28.0589 71.5263 28.2367 71.8402 28.3623C72.1541 28.4878 72.4958 28.5506 72.8655 28.5506ZM78.2514 29.6387V22.3151H81.2645C81.9132 22.3151 82.4677 22.4197 82.928 22.629C83.3953 22.8382 83.7545 23.1382 84.0056 23.5287C84.2567 23.9193 84.3822 24.3832 84.3822 24.9202C84.3822 25.4573 84.2567 25.9211 84.0056 26.3117C83.7545 26.6953 83.3953 26.9917 82.928 27.201C82.4677 27.4032 81.9132 27.5044 81.2645 27.5044H79.0047L79.6115 26.8871V29.6387H78.2514ZM83.0431 29.6387L81.1913 26.9813H82.6455L84.5078 29.6387H83.0431ZM79.6115 27.0336L79.0047 26.3849H81.2017C81.8016 26.3849 82.2514 26.2559 82.5514 25.9978C82.8582 25.7398 83.0117 25.3806 83.0117 24.9202C83.0117 24.4529 82.8582 24.0937 82.5514 23.8426C82.2514 23.5915 81.8016 23.466 81.2017 23.466H79.0047L79.6115 22.7964V27.0336ZM87.1175 27.9124L87.0443 26.3012L90.8839 22.3151H92.4114L89.2204 25.7049L88.4672 26.5314L87.1175 27.9124ZM85.9039 29.6387V22.3151H87.264V29.6387H85.9039ZM91.0095 29.6387L88.2056 26.3012L89.1054 25.3073L92.5997 29.6387H91.0095Z"
          fill="url(#paint52_linear_6525_6455)"/>
    <defs>
        <linearGradient id="paint0_linear_6525_6455" x1="1.18106" y1="18.8762" x2="20.896" y2="19.0604"
                        gradientUnits="userSpaceOnUse">
            <stop offset="0.18" stop-color="#5B4FEC"/>
            <stop offset="0.53" stop-color="#D99A7F"/>
            <stop offset="1" stop-color="white"/>
        </linearGradient>
        <linearGradient id="paint1_linear_6525_6455" x1="1.13518" y1="23.8257" x2="20.8501" y2="24.0099"
                        gradientUnits="userSpaceOnUse">
            <stop offset="0.18" stop-color="#5B4FEC"/>
            <stop offset="0.53" stop-color="#D99A7F"/>
            <stop offset="1" stop-color="white"/>
        </linearGradient>
        <linearGradient id="paint2_linear_6525_6455" x1="1.15809" y1="21.3379" x2="20.873" y2="21.5221"
                        gradientUnits="userSpaceOnUse">
            <stop offset="0.18" stop-color="#5B4FEC"/>
            <stop offset="0.53" stop-color="#D99A7F"/>
            <stop offset="1" stop-color="white"/>
        </linearGradient>
        <linearGradient id="paint3_linear_6525_6455" x1="1.15718" y1="21.3623" x2="20.8721" y2="21.5465"
                        gradientUnits="userSpaceOnUse">
            <stop offset="0.18" stop-color="#5B4FEC"/>
            <stop offset="0.53" stop-color="#D99A7F"/>
            <stop offset="1" stop-color="white"/>
        </linearGradient>
        <linearGradient id="paint4_linear_6525_6455" x1="1.11058" y1="26.3118" x2="20.8255" y2="26.496"
                        gradientUnits="userSpaceOnUse">
            <stop offset="0.18" stop-color="#5B4FEC"/>
            <stop offset="0.53" stop-color="#D99A7F"/>
            <stop offset="1" stop-color="white"/>
        </linearGradient>
        <linearGradient id="paint5_linear_6525_6455" x1="1.18058" y1="18.8996" x2="20.8955" y2="19.0838"
                        gradientUnits="userSpaceOnUse">
            <stop offset="0.18" stop-color="#5B4FEC"/>
            <stop offset="0.53" stop-color="#D99A7F"/>
            <stop offset="1" stop-color="white"/>
        </linearGradient>
        <linearGradient id="paint6_linear_6525_6455" x1="1.13453" y1="23.8493" x2="20.8494" y2="24.0336"
                        gradientUnits="userSpaceOnUse">
            <stop offset="0.18" stop-color="#5B4FEC"/>
            <stop offset="0.53" stop-color="#D99A7F"/>
            <stop offset="1" stop-color="white"/>
        </linearGradient>
        <linearGradient id="paint7_linear_6525_6455" x1="1.15696" y1="21.3849" x2="20.8726" y2="21.5692"
                        gradientUnits="userSpaceOnUse">
            <stop offset="0.18" stop-color="#5B4FEC"/>
            <stop offset="0.53" stop-color="#D99A7F"/>
            <stop offset="1" stop-color="white"/>
        </linearGradient>
        <linearGradient id="paint8_linear_6525_6455" x1="1.11108" y1="26.3351" x2="20.826" y2="26.5194"
                        gradientUnits="userSpaceOnUse">
            <stop offset="0.18" stop-color="#5B4FEC"/>
            <stop offset="0.53" stop-color="#D99A7F"/>
            <stop offset="1" stop-color="white"/>
        </linearGradient>
        <linearGradient id="paint9_linear_6525_6455" x1="1.11132" y1="26.3573" x2="20.8262" y2="26.5415"
                        gradientUnits="userSpaceOnUse">
            <stop offset="0.18" stop-color="#5B4FEC"/>
            <stop offset="0.53" stop-color="#D99A7F"/>
            <stop offset="1" stop-color="white"/>
        </linearGradient>
        <linearGradient id="paint10_linear_6525_6455" x1="1.18046" y1="18.8511" x2="20.8961" y2="19.0353"
                        gradientUnits="userSpaceOnUse">
            <stop offset="0.18" stop-color="#5B4FEC"/>
            <stop offset="0.53" stop-color="#D99A7F"/>
            <stop offset="1" stop-color="white"/>
        </linearGradient>
        <linearGradient id="paint11_linear_6525_6455" x1="1.13405" y1="23.871" x2="20.849" y2="24.0553"
                        gradientUnits="userSpaceOnUse">
            <stop offset="0.18" stop-color="#5B4FEC"/>
            <stop offset="0.53" stop-color="#D99A7F"/>
            <stop offset="1" stop-color="white"/>
        </linearGradient>
        <linearGradient id="paint12_linear_6525_6455" x1="1.08865" y1="28.7519" x2="20.8043" y2="28.9362"
                        gradientUnits="userSpaceOnUse">
            <stop offset="0.18" stop-color="#5B4FEC"/>
            <stop offset="0.53" stop-color="#D99A7F"/>
            <stop offset="1" stop-color="white"/>
        </linearGradient>
        <linearGradient id="paint13_linear_6525_6455" x1="1.08817" y1="28.7753" x2="20.8031" y2="28.9596"
                        gradientUnits="userSpaceOnUse">
            <stop offset="0.18" stop-color="#5B4FEC"/>
            <stop offset="0.53" stop-color="#D99A7F"/>
            <stop offset="1" stop-color="white"/>
        </linearGradient>
        <linearGradient id="paint14_linear_6525_6455" x1="1.08822" y1="28.799" x2="20.8032" y2="28.9833"
                        gradientUnits="userSpaceOnUse">
            <stop offset="0.18" stop-color="#5B4FEC"/>
            <stop offset="0.53" stop-color="#D99A7F"/>
            <stop offset="1" stop-color="white"/>
        </linearGradient>
        <linearGradient id="paint15_linear_6525_6455" x1="1.27456" y1="8.83868" x2="20.9895" y2="9.02292"
                        gradientUnits="userSpaceOnUse">
            <stop offset="0.18" stop-color="#5B4FEC"/>
            <stop offset="0.53" stop-color="#D99A7F"/>
            <stop offset="1" stop-color="white"/>
        </linearGradient>
        <linearGradient id="paint16_linear_6525_6455" x1="1.29729" y1="6.37431" x2="21.0122" y2="6.55855"
                        gradientUnits="userSpaceOnUse">
            <stop offset="0.18" stop-color="#5B4FEC"/>
            <stop offset="0.53" stop-color="#D99A7F"/>
            <stop offset="1" stop-color="white"/>
        </linearGradient>
        <linearGradient id="paint17_linear_6525_6455" x1="1.25165" y1="11.3238" x2="20.9666" y2="11.508"
                        gradientUnits="userSpaceOnUse">
            <stop offset="0.18" stop-color="#5B4FEC"/>
            <stop offset="0.53" stop-color="#D99A7F"/>
            <stop offset="1" stop-color="white"/>
        </linearGradient>
        <linearGradient id="paint18_linear_6525_6455" x1="1.32031" y1="3.93509" x2="21.0352" y2="4.11932"
                        gradientUnits="userSpaceOnUse">
            <stop offset="0.18" stop-color="#5B4FEC"/>
            <stop offset="0.53" stop-color="#D99A7F"/>
            <stop offset="1" stop-color="white"/>
        </linearGradient>
        <linearGradient id="paint19_linear_6525_6455" x1="1.34322" y1="1.44803" x2="21.0581" y2="1.63227"
                        gradientUnits="userSpaceOnUse">
            <stop offset="0.18" stop-color="#5B4FEC"/>
            <stop offset="0.53" stop-color="#D99A7F"/>
            <stop offset="1" stop-color="white"/>
        </linearGradient>
        <linearGradient id="paint20_linear_6525_6455" x1="1.34328" y1="1.47071" x2="21.0582" y2="1.65495"
                        gradientUnits="userSpaceOnUse">
            <stop offset="0.18" stop-color="#5B4FEC"/>
            <stop offset="0.53" stop-color="#D99A7F"/>
            <stop offset="1" stop-color="white"/>
        </linearGradient>
        <linearGradient id="paint21_linear_6525_6455" x1="1.27436" y1="8.86162" x2="20.9893" y2="9.04586"
                        gradientUnits="userSpaceOnUse">
            <stop offset="0.18" stop-color="#5B4FEC"/>
            <stop offset="0.53" stop-color="#D99A7F"/>
            <stop offset="1" stop-color="white"/>
        </linearGradient>
        <linearGradient id="paint22_linear_6525_6455" x1="1.27372" y1="8.88456" x2="20.9894" y2="9.0688"
                        gradientUnits="userSpaceOnUse">
            <stop offset="0.18" stop-color="#5B4FEC"/>
            <stop offset="0.53" stop-color="#D99A7F"/>
            <stop offset="1" stop-color="white"/>
        </linearGradient>
        <linearGradient id="paint23_linear_6525_6455" x1="1.29734" y1="6.39725" x2="21.0123" y2="6.58149"
                        gradientUnits="userSpaceOnUse">
            <stop offset="0.18" stop-color="#5B4FEC"/>
            <stop offset="0.53" stop-color="#D99A7F"/>
            <stop offset="1" stop-color="white"/>
        </linearGradient>
        <linearGradient id="paint24_linear_6525_6455" x1="1.29669" y1="6.42019" x2="21.0123" y2="6.60443"
                        gradientUnits="userSpaceOnUse">
            <stop offset="0.18" stop-color="#5B4FEC"/>
            <stop offset="0.53" stop-color="#D99A7F"/>
            <stop offset="1" stop-color="white"/>
        </linearGradient>
        <linearGradient id="paint25_linear_6525_6455" x1="1.22707" y1="13.8101" x2="20.942" y2="13.9944"
                        gradientUnits="userSpaceOnUse">
            <stop offset="0.18" stop-color="#5B4FEC"/>
            <stop offset="0.53" stop-color="#D99A7F"/>
            <stop offset="1" stop-color="white"/>
        </linearGradient>
        <linearGradient id="paint26_linear_6525_6455" x1="1.22784" y1="13.8338" x2="20.9428" y2="14.018"
                        gradientUnits="userSpaceOnUse">
            <stop offset="0.18" stop-color="#5B4FEC"/>
            <stop offset="0.53" stop-color="#D99A7F"/>
            <stop offset="1" stop-color="white"/>
        </linearGradient>
        <linearGradient id="paint27_linear_6525_6455" x1="1.25074" y1="11.3467" x2="20.9657" y2="11.531"
                        gradientUnits="userSpaceOnUse">
            <stop offset="0.18" stop-color="#5B4FEC"/>
            <stop offset="0.53" stop-color="#D99A7F"/>
            <stop offset="1" stop-color="white"/>
        </linearGradient>
        <linearGradient id="paint28_linear_6525_6455" x1="1.25081" y1="11.3697" x2="20.9657" y2="11.5539"
                        gradientUnits="userSpaceOnUse">
            <stop offset="0.18" stop-color="#5B4FEC"/>
            <stop offset="0.53" stop-color="#D99A7F"/>
            <stop offset="1" stop-color="white"/>
        </linearGradient>
        <linearGradient id="paint29_linear_6525_6455" x1="1.20486" y1="16.2972" x2="20.9198" y2="16.4814"
                        gradientUnits="userSpaceOnUse">
            <stop offset="0.18" stop-color="#5B4FEC"/>
            <stop offset="0.53" stop-color="#D99A7F"/>
            <stop offset="1" stop-color="white"/>
        </linearGradient>
        <linearGradient id="paint30_linear_6525_6455" x1="1.20421" y1="16.3201" x2="20.9198" y2="16.5044"
                        gradientUnits="userSpaceOnUse">
            <stop offset="0.18" stop-color="#5B4FEC"/>
            <stop offset="0.53" stop-color="#D99A7F"/>
            <stop offset="1" stop-color="white"/>
        </linearGradient>
        <linearGradient id="paint31_linear_6525_6455" x1="1.32135" y1="3.95803" x2="21.0363" y2="4.14226"
                        gradientUnits="userSpaceOnUse">
            <stop offset="0.18" stop-color="#5B4FEC"/>
            <stop offset="0.53" stop-color="#D99A7F"/>
            <stop offset="1" stop-color="white"/>
        </linearGradient>
        <linearGradient id="paint32_linear_6525_6455" x1="1.32069" y1="3.98168" x2="21.0356" y2="4.16592"
                        gradientUnits="userSpaceOnUse">
            <stop offset="0.18" stop-color="#5B4FEC"/>
            <stop offset="0.53" stop-color="#D99A7F"/>
            <stop offset="1" stop-color="white"/>
        </linearGradient>
        <linearGradient id="paint33_linear_6525_6455" x1="1.34237" y1="1.49463" x2="21.0573" y2="1.67886"
                        gradientUnits="userSpaceOnUse">
            <stop offset="0.18" stop-color="#5B4FEC"/>
            <stop offset="0.53" stop-color="#D99A7F"/>
            <stop offset="1" stop-color="white"/>
        </linearGradient>
        <linearGradient id="paint34_linear_6525_6455" x1="1.34243" y1="1.51757" x2="21.0581" y2="1.70181"
                        gradientUnits="userSpaceOnUse">
            <stop offset="0.18" stop-color="#5B4FEC"/>
            <stop offset="0.53" stop-color="#D99A7F"/>
            <stop offset="1" stop-color="white"/>
        </linearGradient>
        <linearGradient id="paint35_linear_6525_6455" x1="1.22887" y1="13.8574" x2="20.9438" y2="14.0417"
                        gradientUnits="userSpaceOnUse">
            <stop offset="0.18" stop-color="#5B4FEC"/>
            <stop offset="0.53" stop-color="#D99A7F"/>
            <stop offset="1" stop-color="white"/>
        </linearGradient>
        <linearGradient id="paint36_linear_6525_6455" x1="1.22698" y1="13.8804" x2="20.9419" y2="14.0646"
                        gradientUnits="userSpaceOnUse">
            <stop offset="0.18" stop-color="#5B4FEC"/>
            <stop offset="0.53" stop-color="#D99A7F"/>
            <stop offset="1" stop-color="white"/>
        </linearGradient>
        <linearGradient id="paint37_linear_6525_6455" x1="1.20329" y1="16.3438" x2="20.9182" y2="16.528"
                        gradientUnits="userSpaceOnUse">
            <stop offset="0.18" stop-color="#5B4FEC"/>
            <stop offset="0.53" stop-color="#D99A7F"/>
            <stop offset="1" stop-color="white"/>
        </linearGradient>
        <linearGradient id="paint38_linear_6525_6455" x1="1.2053" y1="16.3667" x2="20.9202" y2="16.551"
                        gradientUnits="userSpaceOnUse">
            <stop offset="0.18" stop-color="#5B4FEC"/>
            <stop offset="0.53" stop-color="#D99A7F"/>
            <stop offset="1" stop-color="white"/>
        </linearGradient>
        <linearGradient id="paint39_linear_6525_6455" x1="1.31854" y1="4.00462" x2="21.0335" y2="4.18886"
                        gradientUnits="userSpaceOnUse">
            <stop offset="0.18" stop-color="#5B4FEC"/>
            <stop offset="0.53" stop-color="#D99A7F"/>
            <stop offset="1" stop-color="white"/>
        </linearGradient>
        <linearGradient id="paint40_linear_6525_6455" x1="1.31904" y1="4.02703" x2="21.034" y2="4.21126"
                        gradientUnits="userSpaceOnUse">
            <stop offset="0.18" stop-color="#5B4FEC"/>
            <stop offset="0.53" stop-color="#D99A7F"/>
            <stop offset="1" stop-color="white"/>
        </linearGradient>
        <linearGradient id="paint41_linear_6525_6455" x1="1.34346" y1="1.54051" x2="21.0584" y2="1.72475"
                        gradientUnits="userSpaceOnUse">
            <stop offset="0.18" stop-color="#5B4FEC"/>
            <stop offset="0.53" stop-color="#D99A7F"/>
            <stop offset="1" stop-color="white"/>
        </linearGradient>
        <linearGradient id="paint42_linear_6525_6455" x1="1.34201" y1="1.56389" x2="21.0569" y2="1.74812"
                        gradientUnits="userSpaceOnUse">
            <stop offset="0.18" stop-color="#5B4FEC"/>
            <stop offset="0.53" stop-color="#D99A7F"/>
            <stop offset="1" stop-color="white"/>
        </linearGradient>
        <linearGradient id="paint43_linear_6525_6455" x1="1.22607" y1="13.9033" x2="20.941" y2="14.0876"
                        gradientUnits="userSpaceOnUse">
            <stop offset="0.18" stop-color="#5B4FEC"/>
            <stop offset="0.53" stop-color="#D99A7F"/>
            <stop offset="1" stop-color="white"/>
        </linearGradient>
        <linearGradient id="paint44_linear_6525_6455" x1="1.22656" y1="13.9257" x2="20.9415" y2="14.11"
                        gradientUnits="userSpaceOnUse">
            <stop offset="0.18" stop-color="#5B4FEC"/>
            <stop offset="0.53" stop-color="#D99A7F"/>
            <stop offset="1" stop-color="white"/>
        </linearGradient>
        <linearGradient id="paint45_linear_6525_6455" x1="1.20511" y1="16.3897" x2="20.92" y2="16.5739"
                        gradientUnits="userSpaceOnUse">
            <stop offset="0.18" stop-color="#5B4FEC"/>
            <stop offset="0.53" stop-color="#D99A7F"/>
            <stop offset="1" stop-color="white"/>
        </linearGradient>
        <linearGradient id="paint46_linear_6525_6455" x1="1.20294" y1="16.4121" x2="20.9179" y2="16.5963"
                        gradientUnits="userSpaceOnUse">
            <stop offset="0.18" stop-color="#5B4FEC"/>
            <stop offset="0.53" stop-color="#D99A7F"/>
            <stop offset="1" stop-color="white"/>
        </linearGradient>
        <linearGradient id="paint47_linear_6525_6455" x1="1.31934" y1="4.0738" x2="21.0343" y2="4.25804"
                        gradientUnits="userSpaceOnUse">
            <stop offset="0.18" stop-color="#5B4FEC"/>
            <stop offset="0.53" stop-color="#D99A7F"/>
            <stop offset="1" stop-color="white"/>
        </linearGradient>
        <linearGradient id="paint48_linear_6525_6455" x1="1.34231" y1="1.60968" x2="21.0572" y2="1.79392"
                        gradientUnits="userSpaceOnUse">
            <stop offset="0.18" stop-color="#5B4FEC"/>
            <stop offset="0.53" stop-color="#D99A7F"/>
            <stop offset="1" stop-color="white"/>
        </linearGradient>
        <linearGradient id="paint49_linear_6525_6455" x1="1.32024" y1="3.91215" x2="21.0352" y2="4.09638"
                        gradientUnits="userSpaceOnUse">
            <stop offset="0.18" stop-color="#5B4FEC"/>
            <stop offset="0.53" stop-color="#D99A7F"/>
            <stop offset="1" stop-color="white"/>
        </linearGradient>
        <linearGradient id="paint50_linear_6525_6455" x1="1.31839" y1="4.04996" x2="21.034" y2="4.23492"
                        gradientUnits="userSpaceOnUse">
            <stop offset="0.18" stop-color="#5B4FEC"/>
            <stop offset="0.53" stop-color="#D99A7F"/>
            <stop offset="1" stop-color="white"/>
        </linearGradient>
        <linearGradient id="paint51_linear_6525_6455" x1="1.34233" y1="1.58754" x2="21.058" y2="1.77178"
                        gradientUnits="userSpaceOnUse">
            <stop offset="0.18" stop-color="#5B4FEC"/>
            <stop offset="0.53" stop-color="#D99A7F"/>
            <stop offset="1" stop-color="white"/>
        </linearGradient>
        <linearGradient id="paint52_linear_6525_6455" x1="27.6367" y1="27.4706" x2="88.9978" y2="-6.29352"
                        gradientUnits="userSpaceOnUse">
            <stop stop-color="#5B4FEC"/>
            <stop offset="1" stop-color="#DFA891"/>
        </linearGradient>
        <clipPath id="clip0_6525_6455">
            <rect width="23.7273" height="29.1276" fill="white" transform="translate(0 0.638672)"/>
        </clipPath>
    </defs>
</svg>
