<svg width="19" height="19" viewBox="0 0 19 19" fill="none" xmlns="http://www.w3.org/2000/svg">
    <path d="M16.9471 8.51412C17.4159 8.94681 17.4159 9.70403 16.9471 10.1367L10.024 17.0598C9.59135 17.5285 8.83413 17.5285 8.40144 17.0598C7.93269 16.6271 7.93269 15.8699 8.40144 15.4372L14.4952 9.30739L8.40144 3.21364C7.93269 2.78095 7.93269 2.02374 8.40144 1.59105C8.83413 1.1223 9.59135 1.1223 10.024 1.59105L16.9471 8.51412Z" fill="#CDC9FD"/>
    <path d="M10.024 8.51412C10.4928 8.94681 10.4928 9.70403 10.024 10.1367L3.10096 17.0598C2.66827 17.5285 1.91106 17.5285 1.47837 17.0598C1.00962 16.6271 1.00962 15.8699 1.47837 15.4372L7.57212 9.30739L1.47837 3.21364C1.00962 2.78095 1.00962 2.02374 1.47837 1.59105C1.91106 1.1223 2.66827 1.1223 3.10096 1.59105L10.024 8.51412Z" fill="#CDC9FD"/>
</svg>
