<svg width="27" height="24" viewBox="0 0 27 24" fill="none" xmlns="http://www.w3.org/2000/svg">
    <path d="M5.01562 13.4531L5.39062 12.75C5.625 12.2812 5.625 11.7656 5.39062 11.2969L5.01562 10.5938L13.9688 11.7188C14.1094 11.7188 14.25 11.8594 14.25 12C14.25 12.1875 14.1094 12.3281 13.9688 12.3281L5.01562 13.4531Z" fill="#4D3E9E"/>
    <path opacity="0.4" d="M1.40625 3.9375C0.5625 2.39062 2.20312 0.609375 3.79688 1.3125L24.5156 10.3125C26.0156 10.9688 26.0156 13.0781 24.5156 13.7344L3.79688 22.7344C2.20312 23.4375 0.5625 21.6562 1.40625 20.1094L5.01562 13.4531L13.9688 12.3281C14.1094 12.3281 14.25 12.1875 14.25 12C14.25 11.8594 14.1094 11.7188 13.9688 11.7188L5.01562 10.5938L1.40625 3.9375Z" fill="#4D3E9E"/>
</svg>
