<svg width="132" height="26" viewBox="0 0 132 26" fill="none" xmlns="http://www.w3.org/2000/svg">
    <path d="M45.1773 14.0653H50.1261C50.8219 14.0653 51.3858 14.6343 51.3858 15.329C51.3858 16.0298 50.8219 16.5928 50.1261 16.5928H44.1575C44.0615 16.5928 43.9716 16.6287 43.9056 16.6886L42.106 18.2398C41.8301 18.4794 41.998 18.9286 42.3579 18.9286H49.8262C49.8262 18.9286 49.8322 18.9286 49.8322 18.9226C49.8322 18.9166 49.8382 18.9166 49.8382 18.9166C49.9341 18.9226 50.0241 18.9286 50.1201 18.9286C52.0996 18.9286 53.7073 17.3175 53.7073 15.329C53.7073 13.4424 52.2616 11.8912 50.414 11.7415C50.414 11.7415 50.408 11.7415 50.408 11.7355C50.408 11.7295 50.408 11.7295 50.402 11.7295H45.0753C44.3795 11.7295 43.8156 11.1605 43.8156 10.4658C43.8156 9.76501 44.3795 9.20202 45.0753 9.20202H51.0319C51.1279 9.20202 51.2238 9.16608 51.2958 9.1002L52.9694 7.54899C53.2334 7.30343 53.0594 6.86621 52.7055 6.86621H45.1773C45.1473 6.86621 45.1113 6.86621 45.0813 6.86621C43.1018 6.86621 41.4941 8.47732 41.4941 10.4658C41.4941 12.4542 43.1018 14.0653 45.0813 14.0653C45.1113 14.0653 45.1413 14.0653 45.1773 14.0653Z"
          fill="white"/>
    <path d="M73.9827 6.8595C73.7667 6.8595 73.5928 7.03319 73.5928 7.2548V18.5385C73.5928 18.7542 73.7667 18.9338 73.9827 18.9338H83.0405C83.1485 18.9338 83.2505 18.8859 83.3285 18.8081L84.4622 17.5922C84.6961 17.3407 84.5222 16.9274 84.1743 16.9274H76.2681C76.0522 16.9274 75.8782 16.7537 75.8782 16.5321V7.24881C75.8782 7.03319 75.7043 6.85352 75.4883 6.85352H73.9827V6.8595Z"
          fill="white"/>
    <path fill-rule="evenodd" clip-rule="evenodd"
          d="M59.4774 6.85938C59.4774 6.86536 59.4774 6.86536 59.4774 6.85938C58.3197 6.91328 57.3899 7.84161 57.3359 8.99754V16.5859C57.3359 16.6159 57.3359 16.6518 57.3359 16.6817C57.3359 17.8856 58.2837 18.8678 59.4774 18.9157H67.6955C68.8832 18.8618 69.837 17.8796 69.837 16.6817C69.837 16.6518 69.837 16.6159 69.837 16.5859V9.00353C69.789 7.8476 68.8592 6.91328 67.7015 6.86536H59.4774V6.85938ZM61.0131 9.00353C61.0071 9.00353 61.0071 9.00353 61.0131 9.00353C60.2872 9.03347 59.7054 9.62042 59.6754 10.3511V15.1245C59.6754 15.1425 59.6754 15.1665 59.6754 15.1844C59.6754 15.9391 60.2692 16.562 61.0131 16.5919H66.1658C66.9097 16.562 67.5035 15.9391 67.5035 15.1844C67.5035 15.1665 67.5035 15.1425 67.5035 15.1245V10.3511C67.4735 9.62042 66.8917 9.03946 66.1658 9.00353H61.0131Z"
          fill="white"/>
    <path fill-rule="evenodd" clip-rule="evenodd"
          d="M97.6285 18.5382C97.6285 18.7538 97.8025 18.9334 98.0184 18.9334H99.5541C99.77 18.9334 99.944 18.7598 99.944 18.5382V9.20091C99.944 9.17097 99.944 9.13503 99.944 9.10509C99.944 7.90125 99.0022 6.91901 97.8265 6.87109H89.9384C89.9084 6.87109 89.8724 6.87109 89.8424 6.87109C88.6187 6.87109 87.6289 7.8713 87.6289 9.11107C87.6289 9.14102 87.6289 9.17696 87.6289 9.2069V18.5441C87.6289 18.7598 87.8029 18.9394 88.0188 18.9394H89.5544C89.7704 18.9394 89.9444 18.7657 89.9444 18.5441V14.6571C89.9444 14.4415 90.1183 14.2618 90.3343 14.2618H97.2566C97.4726 14.2618 97.6465 14.4355 97.6465 14.6571V18.5382H97.6285ZM89.9324 12.1117V10.1712C89.9324 9.41653 90.5382 8.80562 91.282 8.80562H96.2849C97.0287 8.80562 97.6345 9.41653 97.6345 10.1712V12.1117C97.6345 12.3273 97.4606 12.507 97.2446 12.507H90.3223C90.1063 12.507 89.9324 12.3333 89.9324 12.1117Z"
          fill="white"/>
    <path fill-rule="evenodd" clip-rule="evenodd"
          d="M130.05 18.9346C129.834 18.9346 129.66 18.7609 129.66 18.5393V14.6522C129.66 14.4366 129.486 14.2569 129.27 14.2569H122.27C122.054 14.2569 121.88 14.4306 121.88 14.6522V18.5393C121.88 18.7549 121.706 18.9346 121.49 18.9346H119.943C119.727 18.9346 119.553 18.7609 119.553 18.5393V9.20202C119.553 9.17207 119.553 9.13614 119.553 9.10619C119.553 7.87241 120.555 6.86621 121.79 6.86621C121.82 6.86621 121.856 6.86621 121.886 6.86621H129.858C131.046 6.92011 132 7.90235 132 9.1002C132 9.13015 132 9.16608 132 9.19603V18.5333C132 18.7489 131.826 18.9286 131.61 18.9286H130.05V18.9346ZM121.88 10.1723V12.1128C121.88 12.3284 122.054 12.5081 122.27 12.5081H129.27C129.486 12.5081 129.66 12.3344 129.66 12.1128V10.1723C129.66 9.41763 129.048 8.80673 128.299 8.80673H123.242C122.486 8.80673 121.88 9.41763 121.88 10.1723Z"
          fill="white"/>
    <path d="M105.727 6.85938C105.841 6.85938 105.949 6.90729 106.021 6.99713L112.907 15.1964C113.141 15.4719 113.591 15.3042 113.591 14.9389V7.25467C113.591 7.03905 113.765 6.85938 113.981 6.85938H115.516C115.732 6.85938 115.906 7.03306 115.906 7.25467V18.5384C115.906 18.754 115.732 18.9337 115.516 18.9337H113.609C113.603 18.9337 113.597 18.9277 113.597 18.9217C113.597 18.9157 113.597 18.9157 113.591 18.9097L106.585 10.7704C106.351 10.4949 105.901 10.6685 105.901 11.0279V18.5444C105.901 18.76 105.727 18.9397 105.511 18.9397H103.963C103.747 18.9397 103.573 18.766 103.573 18.5444V7.25467C103.573 7.03905 103.747 6.85938 103.963 6.85938H105.727Z"
          fill="white"/>
    <path d="M5.78422 19.3473C5.97617 19.1557 6.23411 19.0479 6.50405 19.0479H31.4881C31.944 19.0479 32.172 19.5989 31.8481 19.9163L26.9112 24.8454C26.7193 25.0371 26.4613 25.1449 26.1914 25.1449H1.2073C0.751407 25.1449 0.523461 24.5939 0.847384 24.2765L5.78422 19.3473Z"
          fill="white"/>
    <path d="M5.78422 0.9479C5.97617 0.756244 6.23411 0.648438 6.50405 0.648438H31.4881C31.944 0.648438 32.172 1.19945 31.8481 1.51688L26.9112 6.44004C26.7193 6.6317 26.4613 6.73951 26.1914 6.73951H1.2073C0.751407 6.73951 0.523461 6.1885 0.847384 5.87106L5.78422 0.9479Z"
          fill="white"/>
    <path d="M26.9112 10.0875C26.7193 9.89589 26.4613 9.78809 26.1914 9.78809H1.2073C0.751407 9.78809 0.523461 10.3391 0.847384 10.6565L5.78422 15.5797C5.97617 15.7713 6.23411 15.8792 6.50405 15.8792H31.4881C31.944 15.8792 32.172 15.3281 31.8481 15.0107L26.9112 10.0875Z"
          fill="white"/>
</svg>
